<?xml version="1.0" encoding="UTF-8"?>
<svg id="Layer_1" data-name="Layer 1" xmlns="http://www.w3.org/2000/svg" viewBox="0 0 347.06 437.91">
  <defs>
    <style>
      .cls-1 {
        fill: #b591cc;
      }

      .cls-2 {
        fill: #cf6b35;
      }

      .cls-3 {
        fill: #8f76c8;
      }

      .cls-4 {
        fill: #e1bb96;
      }

      .cls-5 {
        fill: #856cbb;
      }

      .cls-6 {
        fill: #9d68be;
      }

      .cls-7 {
        fill: #dd9665;
      }

      .cls-8 {
        fill: #eacca9;
      }

      .cls-9 {
        fill: #8d73c6;
      }

      .cls-10 {
        fill: #8d74c6;
      }

      .cls-11 {
        fill: #e8c9a7;
      }

      .cls-12 {
        fill: #eec9a4;
      }

      .cls-13 {
        fill: #aa8fe9;
      }

      .cls-14 {
        fill: #c6612b;
      }

      .cls-15 {
        fill: #edcfad;
      }

      .cls-16 {
        fill: #8a5bd7;
      }

      .cls-17 {
        fill: #f6eddc;
      }

      .cls-18 {
        fill: #eec9a3;
      }

      .cls-19 {
        fill: #a98ee9;
      }

      .cls-20 {
        fill: #e9cba8;
      }

      .cls-21 {
        fill: #f3d7b5;
      }

      .cls-22 {
        fill: #dd9666;
      }
    </style>
  </defs>
  <path d="M54.57,154.48c-5.74-14.93-11.48-29.87-17.22-44.8-2.8-.38-5.14-2.19-6.06-4.71-1.02-2.82.19-5.31.42-5.77-.88-.15-2.92-.62-4.79-2.31-2.41-2.18-2.91-4.91-3.03-5.72-1.28-.29-4.82-1.27-6.06-4.04-1.71-3.82,1.3-10.34,8.75-13.79-12.74-15.42-18.93-20.97-22.21-22.88-.87-.51-4.18-2.31-4.37-5.05-.09-1.28.53-2.37,1.01-3.03,8.51-8.32,22.59-20.11,42.73-29.27C64.67,3.6,83.5.83,95.56,0c.63.53,1.55,1.42,2.36,2.69,2.65,4.19,1.86,9.05,1.68,10.43-.54,4.21.03,11.59,5.08,25.48,7.53-1.54,13.69.91,15.11,4.8.27.74.69,2.43-.34,5.03,2.79-.44,4.91,1.15,5.05,2.71.13,1.44-1.45,2.62-1.6,2.72,4.22,1.65,6.88,5.58,6.67,9.62-.22,4.27-3.57,6.8-4.06,7.17l19.85,35.33c-8.28,7.84-18.98,16.62-32.36,24.79-22.14,13.53-43.11,20.21-58.42,23.71Z"/>
  <circle cx="178.33" cy="269.17" r="168.74"/>
  <g>
    <path class="cls-21" d="M333.86,233.24c-15.15-66.15-75.61-119.61-144.32-122.18-16.21-2.63-32.24.76-47.99,5.36-.04.03-.08.05-.11.08-5.63-10.15-11.27-20.29-16.9-30.44-1.81-4.06-4.25-7.92-6-12l-21.99,23.51c-6.36,4.62-14.54,12.27-22.6,13.4-5.49.76-10.23-1.07-15.47-.47-1.16.81-1.12,2.43-.67,4.12.58,2.2,1.25,3.82,1.73,4.45,6.05,11.39,7.2,20.39,7.08,26.63-.09,4.46-.88,11.03,1.26,16.2.67,3.53,2.64,7.84,3.75,9.86,4.28,7.72,5.48,8.55,14.58,8.58,12.16.04,25.11-3.39,36.5-7.27-14.99,7.28-31.33,10.18-49.03,8.72-11.27,23.26-17.75,43.02-21.62,57.23-3.34,12.24-9.88,36.78-3.53,40.05.65.33,1.3.38,1.77.36,1.3-1.36,2.59-2.73,3.89-4.09,23.63-23.75,53.49-24.63,83.8-14.59,29.4,3.39,60.66,3.44,90.44,2.28l7.1-1.96,3.69.58c14.01-5.7,29.12-7.97,44.15-8.75l3.15-1.83,2.17.74c5.32-4.66,14.45-7.73,18.48-.05l2.36.31,1.67,2.19c4.71.97,9.44,1.85,14.19,2.62-1.31,124.24-142.3,213.05-241.03,120.28l-3.83-1.09c-.11.74-.19,1.47-.13,2.19.82,10.28,42.42,39.98,54.13,43.81,117.33,33.4,226.56-69.85,199.32-188.82Z"/>
    <path class="cls-12" d="M51.54,120.06l14,38s68.85-24.14,76.01-41.64l-17.01-30.36-73,34Z"/>
    <path class="cls-18" d="M68.54,157.06c.95,4.01,5.85,18.29,8.72,19.78,8.58,4.46,37.11-2.15,46.26-6.29l12.01-5.99c-15.37,18.38-38.44,19.87-60.84,18.67-6.05,12.78-11.77,26.49-16.27,40.57-6.59,20.63-8.27,37.22-8.88,42.78-.56,5.12-.85,9.42-1.02,12.49-1.5,3.9-6.76,11.11-9.75,14.1l-2.25.9,2.43,3.17c6.25,20.34,15.89,39.98,26.57,58.83l2.32.07c3.81,6.32,8.47,12.15,13.33,17.68l-.65,2.25c13.22,20.17,34.75,32.42,54,46C35.35,393.82-10.83,278.21,41.74,188.75c4.1-6.98,17.68-26.64,23.81-30.69-.83-2.91,1.55-3.55,3-1Z"/>
    <path class="cls-12" d="M118.54,74.06l.36,2.34c-.79,1.81-18.43,20.45-21.02,22.67-12.04,10.32-22,16.59-38.36,13.35,1.15,2.87,1.16,5.09.02,6.64-2.41.26-5.71.59-8,1l-7-18c19.75-4.03,55.04-21.58,72-33,1.17,1.47,1.34,3.47,2,5Z"/>
    <g>
      <path class="cls-22" d="M98.54,47.06c5.25-1.47,12.07-4.58,15.11.49,1.11,1.84-.11,3.07.07,3.36,1.16,1.88,8.22,2.81.82,8.14,5.25-1.2,6.74-.81,9.96,3.58.43,1.92-6.42,5.39-7.96,6.43l-.7,2.86c-21.43,13.21-44.44,24.92-68.78,31.63l-2.52-1.49c-7.51,1.53-14.04-2.16-6-7.99-3.33.3-4.91,1.82-7.96-.54-3.62-2.79-.79-5.25-1.02-5.46-.3-.29-4.84-.07-4.9-3.69-.1-1.27,10.95-9.08,12.89-10.32l.56-2.69c2.19-2.25,13.38-7.75,16.44-6.31.41-.78.84-1.54,1.39-2.21,3.18-3.91,35.13-17.11,40.08-16.45.86.11,1.7.37,2.53.66Z"/>
      <path class="cls-2" d="M98.54,47.06c-15.04,4.2-30.15,10.88-44,18-1.48.34-2.23.47-3.55-.06-4.41-1.76-19.08-19.89-8.2-22.29,16.38-6.22,30.28-16.19,41.59-28.18l-.84-1.47c-1.39-2.91,2.4-5.07,5-4,4.55,11.98,4.89,26.09,10,38Z"/>
      <path class="cls-14" d="M83.54,13.06c3.2-.29,1.78.56.77,2.27-4.79,8.13-14.98,16.16-23.1,20.9-3.09,1.8-19.61,8.84-20.23,9.82-2.76,4.34,9.57,16.87,13.56,19.01-5.21,2.68-12.21,5.94-17,9l-25-30,3.16-2.68c22.97-6.05,44.59-16.61,64.78-28.68l3.07.35Z"/>
      <path class="cls-7" d="M12.54,44.06c-2.62-2.52,5.56-6.76,8.08-8.42,19.29-12.62,45.12-22.9,67.34-28.64,1.17,0,.36,1.48.58,2.05-1.89.99-3.29,2.82-5,4-9.87,6.79-25.24,14.25-36.32,19.18s-22.66,9.65-34.68,11.82Z"/>
    </g>
    <path class="cls-15" d="M64.54,149.06c8.51.31,23.86-7.79,31.67-11.83,6.84-3.54,12.97-10.41,21.34-9.67-12.45,6.86-24.63,14.97-38.04,19.97-4.52,1.69-10.26,4.98-14.97,2.53v-1Z"/>
    <path class="cls-4" d="M54.54,126.06l12-1.99c-1.72,2.42-5.66,4.03-8.33,5.23-1.42.63-2.54-.29-2.67-.24l-1-3Z"/>
    <path class="cls-20" d="M113.54,116.06c.73,2.61-4.16,2.9-6,3.49-10.37,3.3-21.29,5.51-31.99,7.49,1.2-1.69,5.1-3.92,6.97-4.51,9.06-2.88,21.61-2.73,31.02-6.47Z"/>
    <path class="cls-8" d="M89.54,134.07l-14.45,7.04-11.54,1.95c-.72-2.69,2.43-2.53,4.23-3.24,6.7-2.63,14.61-4.71,21.76-5.74Z"/>
    <path class="cls-11" d="M100.55,113.05l16.99-8.99c3.24,3.92-13.99,9.72-16.99,8.99Z"/>
    <path class="cls-6" d="M49.54,300.06c-4.73-.95-9.08-3.28-13-6,.35-4.68,8.93-11.76,12-15-.09,6.97.31,14.08,1,21Z"/>
    <path class="cls-13" d="M281.54,296.06c-.83,3.31-1.87,7.99,0,11-10.59,1.24-11.17-12.72,0-11Z"/>
    <g>
      <path class="cls-19" d="M286.54,251.06l.4,2.44c-7.42,8.29-7.08,17.07-.78,25.87,1.53,4.69.15,15.43-4.62,16.68-.19-1.27-4.43-1.59-6.47.25-6.61,5.96.19,13.24,7.47,11.75l1.41-1.91c27.83,8.32,29.1-34.15,24.3-51.87l1.29-2.22,17.87,3.13c-2.53,91.4-73.6,173.33-170.24,160.74-28.13-3.66-57.35-19.22-76.63-39.87-4.4-4.71-12.06-14.39-15-20-6.7-13.53-12.53-29.8-15.15-48.58-.35-2.51-.63-4.99-.85-7.42,1.62.1,3.23.2,4.85.3,59.63,14.53,125.14.03,173.23-37.26l7.93-2.04c14.83-6.79,34.77-10.17,51-10Z"/>
      <path class="cls-1" d="M49.54,300.06c.03.33-.04.67,0,1,1.95,17.67,7.74,39.22,16,55-7.48-9.62-13.91-21.5-18.86-32.64-2.33-5.25-10.48-24.85-10.14-29.36,3.71-.82,10.99,2.81,13,6Z"/>
      <circle class="cls-5" cx="267.13" cy="333.84" r="18.47"/>
      <circle class="cls-5" cx="127.51" cy="363.97" r="13.17"/>
      <path class="cls-3" d="M282.54,308.06c-.36-.02-1.99,1.07-3.47,1.04-9.83-.19-10.42-15.2.95-15.08,2,.02,1.6.1,1.52,2.04l-1.29,1.87c-6.8-.3-6.28,7.2.14,7.21l1.15,1.92c.21.34.75.62,1,1Z"/>
      <g>
        <circle class="cls-10" cx="151.59" cy="389.28" r="13.12"/>
        <circle class="cls-19" cx="151.65" cy="389.46" r="11.5"/>
      </g>
      <g>
        <circle class="cls-9" cx="163.87" cy="357.39" r="7.35"/>
        <circle class="cls-19" cx="163.99" cy="357.32" r="5.71"/>
      </g>
    </g>
    <path class="cls-17" d="M309.54,252.06c5.36,12.76,3.41,39.22-5,50.5-1.27,1.7-3.52,4.21-7.12,5.95-4.57,2.21-12.08,3.48-16.32-.5-.48-.45-2.94-2.77-2.74-6.23.19-3.34,2.73-5.36,3.17-5.71,1.38-5.52,3.92-7.09,3.02-14.53-.58-4.78-4.06-6.88-4.81-10.18-1.67-7.35,1.45-15.22,6.79-20.29,6.85-6.5,18.48-9.76,23,1Z"/>
    <path class="cls-16" d="M200,261.02c-21.23.31-40.32,1.34-61.67-2.25-8.01-1.35-15.68-4.13-23.58-5.42-25.46-4.14-46.36,5.17-64.21,22.71-.75.73-1.25,2.21-2,3-.03,3.34.03,6.85.21,10.52.17,3.67.45,7.17.79,10.48,1.98.46,5.55,1.26,10.02,2.07,18.63,3.41,81.51,12.39,145.29-21.27,7.19-3.8,18.19-10.14,30.69-19.81-11.83.17-23.7-.21-35.54-.04Z"/>
  </g>
</svg>