<?xml version="1.0" encoding="UTF-8"?>
<svg id="Layer_1" data-name="Layer 1" xmlns="http://www.w3.org/2000/svg" viewBox="0 0 1645.86 1209.84">
  <defs>
    <style>
      .cls-1 {
        fill: #111;
      }

      .cls-2 {
        fill: #cb7300;
      }

      .cls-3 {
        fill: #ed8600;
      }

      .cls-4 {
        fill: #d8004e;
      }

      .cls-5 {
        fill: #fde998;
      }
    </style>
  </defs>
  <g>
    <path class="cls-2" d="M1590.06,49.78c9.99,9.5,19.45,18.41,26.51,30.75,18.89,29.28,24.36,54.91,26.26,68.87,3.57,26.26.03,52.09-2.18,68.25-.7,5.14-1.06,7.62-1.45,8.87-7.31,23.85-17.35,44.63-32.95,64.11-127.75,129.19-257.75,256.22-386.2,384.66-44.19-39.92-84.23-84.22-126.27-126.27L1590.06,49.78Z"/>
    <path class="cls-3" d="M1590.06,49.78l-496.29,499.23-123.34-123.34c132.31-132.31,261.88-268.27,398.47-395.89,70.06-46.54,160.66-37.53,221.16,20Z"/>
    <path class="cls-5" d="M1093.77,549.01c42.05,42.05,82.09,86.36,126.27,126.27l-205.56,205.56c-2.85-112.71-83.86-215.29-193.82-240.8-17.93-4.16-37.9-8.19-55.8-8.81l205.56-205.56,123.34,123.34Z"/>
  </g>
  <path class="cls-1" d="M764.87,631.23c17.89.62,37.87,4.65,55.8,8.81,55.26,214-151.69,357.38-339.2,381.74-64.98,8.44-118.62,2.36-181.21-15.5-30.41-8.68-58.52-22.08-87.47-34.4-35.02-63.01-43.42-108-63.23-176.25-1.41-4.86.56-10.43-7.25-8.76v-17.62c104.73,30.6,199.11,56.29,306.14,16.88,126.55-46.59,158.41-160.37,316.43-154.9Z"/>
  <path d="M1014.49,880.84c2.79,110.57-55.5,191.57-144.16,250.81-226.18,151.12-526.88,75.32-657.54-159.78,28.94,12.32,57.05,25.73,87.47,34.4,62.59,17.86,116.23,23.94,181.21,15.5,187.52-24.36,394.47-167.74,339.2-381.74,109.95,25.51,190.97,128.09,193.82,240.8Z"/>
  <path class="cls-4" d="M244.88,887.54c-2.59,7.22-9.15,12.32-12.45,19.24-8.83,18.52,8.11,38.04,19.31,55.23,12.43,19.06,14.8,32.68,17.14,49.18,2.96,20.9.55,45.46-5.82,46.63-5.27.97-9.42-14.8-27.74-42.28-13.37-20.06-14.77-17.06-24.75-32.41-22.16-34.08-14.5-47.66-34.26-70.67-14.96-17.41-18.95-10.76-34.73-28.04-16.75-18.34-21.68-44.3-25.06-68.9-1.91-13.88-3.07-29.54,5.83-40.36,5.91-7.18,15.23-10.71,24.42-12.16,24.53-3.89,77.16,13.55,85.54,40.84,4.16,13.56-5.2,26.57-.61,41.39,4.33,13.98,18.93,26.3,13.18,42.31Z"/>
  <path class="cls-4" d="M261.23,1080.02s-24.22,40.37-10.09,54.5,24.22-27.25,24.22-27.25c0,0-10.09-13.12-14.13-27.25Z"/>
  <path class="cls-4" d="M4.72,656.87c-10.1,8.83-2.35,35.46,8,39.55.68.27,2.93,1.16,5.1.28,4.01-1.62,5.37-8.28,5.03-13.14-.5-7.08-4.46-8.03-4.07-13.29.52-7.08,8-9.55,6.99-12.74-1.25-3.92-14.49-6.37-21.04-.65Z"/>
  <path class="cls-4" d="M115.18,743.2c-6.09,12.23-18.43,19.81-31.33,19.23-13.52-.62-23.97-10.04-28.1-19.23-4.37-9.72,1.14-12.93-2.96-26.62-4.19-13.98-11.79-16.81-10.35-25.14,1.18-6.84,7.76-13.44,14.79-14.79,14.08-2.69,28.04,16.08,38.08,29.58,9.69,13.03,15.86,25.98,19.87,36.97Z"/>
</svg>