<?xml version="1.0" encoding="UTF-8"?>
<svg id="Layer_1" data-name="Layer 1" xmlns="http://www.w3.org/2000/svg" viewBox="0 0 326.26 406.72">
  <defs>
    <style>
      .cls-1 {
        fill: #7b6b78;
      }

      .cls-2 {
        fill: #010101;
      }

      .cls-3 {
        fill: #52ddfe;
      }

      .cls-4 {
        fill: #938292;
      }
    </style>
  </defs>
  <g>
    <path class="cls-2" d="M166.24,366.75c-5.51-4.03-12.4.31-11.95,6.86.49,7.06,6.23,18.73,9.91,28.41,1.08,2.84,3.79,4.71,6.83,4.71h0c4.92,0,8.42-4.76,6.98-9.46-3.84-12.57-7.64-27.49-11.77-30.51Z"/>
    <path class="cls-2" d="M203.78,236.24l-105.96.04c-3.92.61-6.75,3.91-6.56,7.94.12,2.4,3.36,7,5.5,7h85.5c-.55,3.62,1.6,12.76-2,14.5l-130.51.5c-4.73-.87-1.65-11.4-2.5-15h18.5c2.14,0,5.38-4.6,5.5-7,.17-3.52-2.22-7.01-5.71-7.79-10.49-2.34-36.79,2.65-44.65-1.35-1.16-.59-2.29-1.85-3.12-2.88l-.57-94.54c-.01-3.04,2.64-4.82,5-6l180.6-.49c3.35-.21,6,1.52,7.94,4.06l.57,94.54c-.2,3.78-4.06,6.26-7.53,6.47Z"/>
    <path class="cls-2" d="M289.26,161.22c3.48-.17,6.48-3.13,6.94-6.56l.05-70.45c2.33-.05,4.68.07,7.01,0,1.5-.04,7.87-.44,8.02.58v199.43c-2.67-.05-5.36.06-8.02,0-2.33-.06-4.68.05-7.01,0l.03-95.53c-.06-3.8-3.18-7.29-7.02-7.48-2.85-.14-8,2.89-8,5.5v75.5l-53.78-43.21v-70.58l53.78-43.21v50.5c0,2.61,5.15,5.64,8,5.5Z"/>
    <path class="cls-2" d="M173.48,17.5c6.15,1.38,16.57,8.58,21.78,6.72.47-.17.75-3.03,3.98-1.53,1.55.72,10.4,10.52,10.84,12.29.93,3.73-1.99,3.86-2.64,5.95-1.22,3.92,2.73,11.51,3.56,16.05,8.28,45.3-43.12,76.71-79.74,48.24-42.03-32.67-9.93-99.45,42.22-87.72Z"/>
    <path class="cls-2" d="M296.26,69.44l-2.5.05c-7.98.16-14.34,6.72-14.26,14.7v.15c-17.91,15.3-35.82,30.6-53.72,45.91-1.66-2.35-3.32-4.71-4.98-7.06-4.61-4.13-10.22-6.88-16.53-6.98,1.72-1.38,9.7-11.99,10.5-11.99,3.75-5.02,10.08-14.87,12.68-28.88,2.18-11.76.82-21.54-.45-27.36-2.68-5.05-3.58-9.57-3.59-13.46,0-4.63,1.26-5.89.45-9.42-.81-3.49-3.39-6.11-8.52-11.21-4.62-4.59-6.93-6.89-9.87-8.07-5.2-2.1-10.3-1.31-13.46-.45-6.63-2.68-20.73-7.29-38.13-4.49-4.52.73-34.37,6.05-49.35,33.64-11.65,21.47-9.91,48.35,4.18,69.7,3.85,4,7.7,8,11.55,12h-23l8.15-12c.7-1.23,14.78-26.94.14-52.72-9.35-16.46-27.03-27.02-46.33-26.85-20.53.18-38.62,12.46-47.1,30.06-11.71,24.3.41,47.27,1.65,49.52,1.4,1.84,2.91,3.64,4.31,5.57,2.02,2.79,4.19,5.72,5.19,6.42-15.76,1.6-21.1,11.81-22.05,26.46-1.51,23.33-1.72,59.89,0,83.09,1.38,18.52,11.42,27.04,30.04,25.46-.07,8.24-.68,19.48,6.06,25.44,1.18,1.04,7.32,4.56,8.44,4.56h44.5l-40.03,114.5c-1.88,5.38,2.11,11,7.81,11h0c3.51,0,6.64-2.22,7.8-5.53l41.42-117.97v116c0,4.14,3.36,7.5,7.5,7.5h0c4.14,0,7.5-3.36,7.5-7.5v-114c1.45-.23,1.31,1.68,1.74,2.75,6.13,15.45,12.08,42.26,19.7,55.31,4.67,7.99,14.97,3.35,13.5-6.5-2.25-15.01-15.25-36.58-18.71-52.29-.24-1.1-.32-2.16-.23-3.27h44.5c.82,0,6.96-3.13,8.01-3.99,7-5.72,6.64-17.8,6.48-26.02,8.3.73,16.85-.43,23.04-6.46,1.79-1.74,4.57-7.92,6.4-7.5,17.81,15.54,37.16,29.62,54.35,45.68-.14,10.4,4.52,15.25,14.73,16.27,4.44.45,19.76.39,23.49-.99,1.64-.6,7-7.69,7-9.5V88.61c0-10.58-8.58-19.17-19.17-19.17h-10.83Z"/>
    <path class="cls-2" d="M23.34,71.49c3.09-15.78,15.95-27.96,32.16-29.99,13.73-1.72,27.48,4.42,35.39,15.78,10.89,15.65,8.38,37.19-6.38,49.88-11.04,9.49-26.81,11.71-40.02,5.6-15.99-7.4-24.42-24.53-21.14-41.27Z"/>
  </g>
  <g>
    <path class="cls-4" d="M91.26,244.22h-20c.17-3.52-2.22-7.01-5.71-7.79-10.49-2.34-36.79,2.65-44.65-1.35-1.16-.59-2.29-1.85-3.12-2.88l-.57-94.54c-.01-3.04,2.64-4.82,5-6l180.6-.49c3.35-.21,6,1.52,7.94,4.06l.57,94.54c-.2,3.78-4.06,6.26-7.53,6.47l-105.96.04c-3.92.61-6.75,3.91-6.56,7.94ZM36.97,146.44c-3.61.81-5.34,4.91-5.74,8.26-1.41,11.82-1.41,46.24,0,58.05.68,5.67,2.91,8.01,8.48,8.52,28.26,2.6,60.41-2.07,89.09,0,5.26.39,7.9-3.68,8.48-8.52,1.5-12.52,1.26-44.27.03-57.07-.5-5.24-2.49-9.77-8.5-9.5l-91.83.26ZM176.97,146.44c-6.59,1.52-7.3,13.74,1.77,14.8,8.04.95,19.08,1.63,17.47-9.44-1.05-7.21-13.84-6.61-19.24-5.37ZM166.97,176.44c-6.39,1.47-6.42,12.52-.77,14.34,2.96.96,20.94.94,24.5.38,7.46-1.18,7.38-12.63,1.62-14.5-2.8-.91-22.23-.94-25.34-.23ZM194.96,208.51c-.91-1.12-3.64-2.14-5.16-2.33-5.94-.74-26.23-.8-31.98.11-7.83,1.23-7.68,13.63,0,14.88,5.18.85,27.71.84,32.89,0,5.76-.94,7.48-8.65,4.25-12.65Z"/>
    <path class="cls-1" d="M289.26,161.22v20c-2.85-.14-8,2.89-8,5.5v75.5l-53.78-43.21v-70.58l53.78-43.21v50.5c0,2.61,5.15,5.64,8,5.5Z"/>
    <path class="cls-1" d="M91.26,244.22c.12,2.4,3.36,7,5.5,7h85.5c-.55,3.62,1.6,12.76-2,14.5l-130.51.5c-4.73-.87-1.65-11.4-2.5-15h18.5c2.14,0,5.38-4.6,5.5-7h20Z"/>
    <path class="cls-1" d="M303.26,84.22c1.5-.04,7.87-.44,8.02.58v199.43c-2.67-.05-5.36.06-8.02,0V84.22Z"/>
    <path class="cls-4" d="M303.26,84.22v200c-2.33-.06-4.68.05-7.01,0l.03-95.53c-.06-3.8-3.18-7.29-7.02-7.48v-20c3.48-.17,6.48-3.13,6.94-6.56l.05-70.45c2.33-.05,4.68.07,7.01,0Z"/>
    <path class="cls-2" d="M36.97,146.44l91.83-.26c6.02-.28,8,4.25,8.5,9.5,1.23,12.8,1.47,44.56-.03,57.07-.58,4.84-3.21,8.91-8.48,8.52-28.68-2.07-60.84,2.6-89.09,0-5.57-.51-7.8-2.86-8.48-8.52-1.41-11.81-1.41-46.23,0-58.05.4-3.35,2.13-7.46,5.74-8.26ZM122.26,161.22H47.26v45h75v-45Z"/>
    <path class="cls-2" d="M194.96,208.51c3.22,4,1.51,11.71-4.25,12.65-5.18.84-27.71.85-32.89,0-7.68-1.25-7.82-13.65,0-14.88,5.75-.9,26.04-.85,31.98-.11,1.52.19,4.25,1.21,5.16,2.33Z"/>
    <path class="cls-2" d="M166.97,176.44c3.11-.72,22.54-.68,25.34.23,5.76,1.87,5.84,13.32-1.62,14.5-3.55.56-21.54.58-24.5-.38-5.65-1.83-5.61-12.88.77-14.34Z"/>
    <path class="cls-2" d="M176.97,146.44c5.41-1.24,18.19-1.85,19.24,5.37,1.61,11.07-9.43,10.39-17.47,9.44-9.07-1.07-8.36-13.29-1.77-14.8Z"/>
    <rect class="cls-3" x="47.26" y="161.22" width="75" height="45"/>
  </g>
  <path class="cls-4" d="M195.26,24.22c2.38-.6,3.24,4.18,3.76,5.75,14.63,44.2-22.76,84.6-67.76,75.25-42.03-32.67-9.93-99.45,42.22-87.72,6.15,1.38,16.57,8.58,21.78,6.72ZM189.38,66.19c0-15.21-12.33-27.54-27.54-27.54s-27.54,12.33-27.54,27.54,12.33,27.54,27.54,27.54,27.54-12.33,27.54-27.54Z"/>
  <path class="cls-4" d="M90.65,56.94c.49,11.79-1.18,25.1-8.97,34.19-2.15,2.51-2.97,2.01-4.42,3.09,13.97-18.22-2.36-44.99-24.99-36.49-31.84,11.97-6.27,59.76,22.99,38.49-.76,1.02-.4,2.22-2.48,4.01-8.43,7.28-22.71,9.78-33.8,9.4-12.36-8.45-18.51-23.45-15.63-38.15,2.88-14.7,14.23-26.27,28.86-29.43s29.75,2.69,38.44,14.88Z"/>
  <path class="cls-1" d="M131.26,105.22c44.99,9.35,82.39-31.05,67.76-75.25-.52-1.57-1.37-6.35-3.76-5.75.47-.17.75-3.03,3.98-1.53,1.55.72,10.4,10.52,10.84,12.29.93,3.73-1.99,3.86-2.64,5.95-1.22,3.92,2.73,11.51,3.56,16.05,8.28,45.3-43.12,76.71-79.74,48.24Z"/>
  <path class="cls-1" d="M38.97,109.64c11.1.37,25.37-2.12,33.8-9.4,2.08-1.79,1.72-2.99,2.48-4.01.84-1.12.88-1.16,2-2,1.45-1.08,2.27-.58,4.42-3.09,7.8-9.09,9.47-22.4,8.97-34.19,10.54,14.8,8.96,35.02-3.76,47.99-12.72,12.97-32.91,14.95-47.91,4.7Z"/>
  <path class="cls-2" d="M189.38,66.19c0,15.21-12.33,27.54-27.54,27.54s-27.54-12.33-27.54-27.54,12.33-27.54,27.54-27.54,27.54,12.33,27.54,27.54ZM174.35,66.22c0-6.86-5.56-12.42-12.42-12.42s-12.42,5.56-12.42,12.42,5.56,12.42,12.42,12.42,12.42-5.56,12.42-12.42Z"/>
  <path class="cls-2" d="M77.26,94.22c-1.12.84-1.16.88-2,2-29.25,21.27-54.82-26.51-22.99-38.49,22.62-8.51,38.96,18.26,24.99,36.49ZM67.53,78.72c0-4.15-3.36-7.51-7.51-7.51s-7.51,3.36-7.51,7.51,3.36,7.51,7.51,7.51,7.51-3.36,7.51-7.51Z"/>
  <circle class="cls-1" cx="161.93" cy="66.22" r="12.42"/>
  <circle class="cls-1" cx="60.02" cy="78.72" r="7.51"/>
</svg>