<?xml version="1.0" encoding="UTF-8"?>
<svg id="Layer_1" data-name="Layer 1" xmlns="http://www.w3.org/2000/svg" viewBox="0 0 2048 2048">
  <defs>
    <style>
      .cls-1 {
        fill: #8798a5;
      }

      .cls-2 {
        fill: #292f33;
      }

      .cls-3 {
        fill: #f38f0c;
      }

      .cls-4 {
        fill: #dc2e44;
      }

      .cls-5 {
        fill: #fed882;
      }

      .cls-6 {
        fill: #cbd5dc;
      }

      .cls-7 {
        fill: #f4f7f9;
      }
    </style>
  </defs>
  <path class="cls-3" d="M1056.09.03c174.57-.16,352.78,56.89,503.25,149.19,191.73,117.61,334.51,288.23,418.2,496.62,44.21,110.08,71.29,229.6,70.44,347.17v63c.97,149.32-41.79,300.01-110.27,433.57-100.11,195.25-250.52,346.24-445.55,446.87-134.21,69.25-285.83,112.3-436.07,111.54h-62.99c-158.53.11-320.49-47.6-460.57-123.51C250.32,1771.55,48.39,1481,6.65,1162.21c-4.7-35.86-5.67-72.81-6.45-106.2.47-20.96-.64-42.05,0-63-.57-62.42,7.43-124.33,20.57-185.23C105.4,415.56,415.7,105.24,807.88,20.6,868.77,7.46,930.68-.54,993.09.03h62.99Z"/>
  <g>
    <ellipse class="cls-5" cx="1024.09" cy="1024.01" rx="824.75" ry="824.83"/>
    <ellipse class="cls-7" cx="1024.08" cy="1024.01" rx="739.43" ry="739.5"/>
    <g>
      <path class="cls-6" d="M941.1,794.01l82-337,88.51,356,313.44-189.99-189.98,313.47,355.97,88.51-336.97,82c-15.55-19.37-28.94-41.53-41.73-63.02-5.83-8.09-10.25-16.75-13.27-25.98-1.24-.82-2.17-1.9-2.78-3.24-6.88-80.57-62.49-144.71-142.61-159.49-7.75-.4-14.95-1.82-21.58-4.26l-6.12-2.36c-27.62-16.36-55.15-33.07-82.5-49.94-1.9-1.17-3.56-2.39-2.37-4.7Z"/>
      <path class="cls-6" d="M794.12,942.01l3.74,2.68c17.51,26.21,34.25,52.85,50.22,79.93l1.03,6.39c2.73.71,4.07,3.26,4.02,7.64,6.68,84.23,74.91,150.91,159.25,157.92l4.71,2.44c31.95,15.48,62.51,34.82,90.99,56l-2.69,2.76-80.3,333.24-88.51-356-313.44,189.99,189.98-313.47-355.97-88.51,336.97-81Z"/>
      <g>
        <path class="cls-4" d="M941.1,794.01c.73.45,1.94,2.09,3.46,3.02,29.22,17.92,58.79,35.3,87.53,53.98l-4.63,1.88c-99.79-2.24-176.33,79.95-176.24,176.84l-2.11,1.28c-12.97-29.03-39.81-60.48-54.99-89l-230.97-378.99c124.96,76.47,249.75,153.26,374.65,229.84,1.19.73,2.7.78,3.3,1.15Z"/>
        <path class="cls-2" d="M1254.07,1107.01c76.89,126.05,153.61,252.23,230.97,377.98l-36.91-21.57c-113.18-69.73-226.57-139.17-340.05-208.41-30.38-18.54-60.47-37.67-90.99-56l.75-2.06c99.94,1.31,179.02-77.56,179.12-177.66l2.11-1.28c17.52,30.1,36.96,59.43,54.99,89Z"/>
        <g>
          <path class="cls-1" d="M1032.09,851.01c74.85,2.9,140.31,55.5,159.7,127.78,3.48,12.98,4.18,26.51,7.28,39.22l-2.01,24.49c-8.93,80.2-70.59,143.79-150.62,154.36l-29.35,2.14c-85.52-6.82-150.1-63.91-164.82-148.66-1.2-6.92-.32-12.96-3.17-19.33l2.01-24.49c10.53-92.25,87.87-159.11,180.97-155.51Z"/>
          <ellipse class="cls-7" cx="1024.09" cy="1024.46" rx="93.67" ry="93.67"/>
        </g>
      </g>
    </g>
  </g>
</svg>