<?xml version="1.0" encoding="UTF-8"?>
<svg id="Layer_1" data-name="Layer 1" xmlns="http://www.w3.org/2000/svg" viewBox="0 0 383.1 370.87">
  <defs>
    <style>
      .cls-1 {
        fill: #858cad;
      }

      .cls-2 {
        fill: #a2a8ba;
      }

      .cls-3 {
        fill: #030303;
      }
    </style>
  </defs>
  <path class="cls-1" d="M86.59,168.87v14.6c0,.85,2.88,3.87,3.93,4.3,4.02,1.64,11.02-.35,11.02-5.04v-13.85c10.05.87,21.99-1.17,31.8-.02,3.43.4,5.2,2.14,5.61,5.61.61,5.27.76,30.51-.37,34.85-.92,3.53-4.67,6.3-8.23,6.73-29.91,3.6-52.37-7.82-78.16,16.82-32.38,30.91-20.05,84.58,20.95,100.33-2.46,4.5-3.76,9.06-3.75,14.19,0,1.31,1.93,4.5-.37,4.14-6.44-1.02-19.35-9.28-24.65-13.5-35.32-28.11-39.42-81.2-9.35-114.86,3.11-3.48,13-10.66,13.83-13.85l.74-37.43c1.39-1.86,2.91-2.75,5.21-3.02,9.79-1.16,21.76.9,31.8.02Z"/>
  <path class="cls-2" d="M134.45,230.26c2.92-.25,5.98-1.61,8.46-3.13,3.13-1.92,4.69-4.59,7.51-6.55,43.26,43.08,21.71,118.9-37.66,132.81-5.35,1.25-17.49,3.07-22.48,1.54-7.99-2.46-7.67-16.48,2.08-18.21,5.67-1,11.06-.61,17.24-2.21,41.17-10.68,57.82-60.24,32.63-94.46-1.97-2.68-5.43-5.56-7.05-7.91-.44-.63-1.04-.74-.74-1.88Z"/>
  <path class="cls-3" d="M382.69,150.91c.52,5.6.58,16.91,0,22.46-1.14,10.89-6.51,26.18-11.57,35.95-1.09,2.1-6.05,8.9-6.19,10.19s3.9,12.43,4.54,15.38c3.05,13.89,2.85,28.84-.46,42.68-1.68,7.03-4.1,19.68-13.99,17.06-.36-.09-2.99-2.48-3.34-3.02-3.09-4.75,1.74-13.24,2.97-18.68,4.85-21.39-.2-50.51-15.02-67.32-6.83-7.74-17.73-3.41-16.8,7.05.33,3.75,6.91,12.13,8.9,16.58,23.16,51.58-26.44,102.3-78.67,80.25-4.99-2.11-13.55-8.86-17.67-9.32-8.97-1.02-14.68,8.53-8.65,15.46,2.06,2.37,8.64,6.21,11.61,7.84,19.59,10.76,41.5,13.11,62.99,6.88,5.15-1.49,10.74-5.73,15.75-3.36.46.22,3.43,2.62,3.53,2.82,5.25,9.85-11.73,14.23-18.11,15.93-26.69,7.11-61.11,1.23-82.77-16.37-22.72-18.45-4.73-50.67,21.65-43.38,5.95,1.64,12.02,7.45,18.46,9.96,39.73,15.46,75.66-21.7,57.9-60.96-3.11-6.87-9.04-12.14-9.84-20.09-2.04-20.31,12.61-21.95,19.57-36.53,19.3-40.41-21.08-78.45-60.61-57.68-20.44,10.74-39.95,54.82-67.01,34.71-5.24-3.89-23.64-22.39-27.69-27.68-15.67-20.43,13.56-35.83,23.6-49.8,0-1.75-9.92-10.24-11.72-12.3-3.69,2.37-6.46,6.08-10.5,8.05-10.52,5.11-20.03.96-29.04-4.93l-17.51,17.52c7.22,9.16,9.85,19.54,4.09,30.24-3.54,6.57-19.1,21.16-25.57,25.3-1.02.65-3.13.83-3.65,1.59-1.11,1.64.1,8.15-.34,10.51h35.52c1.88,0,8.86,3.79,10.46,5.24,10.82,9.81,4.82,31.22,6.35,44.38,77.34,63.26,13.43,189.11-83.74,164.09C-4.4,348.43-24.5,251.69,34.09,202.78c2.11-15.47-6.25-39.25,11.93-47.19.67-.29,4.78-1.69,5.05-1.69h35.52c-.46-2.54.81-8.56-.36-10.49-.25-.42-6.61-3.87-8.25-5.21-12.47-10.22-26.18-24.82-17.22-41.98,2.42-4.63,16.14-18.46,20.6-22.05,10.84-8.74,23.86-8.24,34.14,1.07,1.37.25,15.72-15.41,18.08-17.52-7.62-8.73-10-19.37-4.37-29.97,2.86-5.39,20.21-22.74,25.67-25.2,13.28-6,22.88-.71,32.31,8.36,10.55,10.14,19.92,21.56,12.23,36.98-1.01,2.03-4.76,5.68-4.32,7.42.47,1.84,9.87,9.47,11.61,11.7,1.56.28,19.48-19.37,22.69-22.04,22.6-18.75,34.98,8.87,50.63,21.23,51.16-5.91,97.98,33.77,102.67,84.7ZM162.64,15.58c-1.27.29-1.85,1-2.79,1.7-2.67,1.98-15.02,14.24-16.84,16.83-3.07,4.36-2.34,9.17,1.53,12.74,4.99-4.37,11.42-15.03,18.74-8.27,7.49,6.92-3.48,14.27-7.88,19.13,3.99,4.18,8.44,4.52,13.07,1.12,2.04-1.5,17.57-17.32,17.99-18.67.83-2.68.67-6.61-.82-8.99-1.02-1.63-12.45-13.06-14.17-14.26-2.56-1.77-5.79-2.03-8.82-1.34ZM355.79,203.3c1.8,1.27,5.25-8.14,5.8-9.53,20.3-51.89-12.03-111.37-69.71-113.26-5.29-.17-13.14,1.84-17.64.45-4.92-1.52-20.51-21.68-26.1-25.52-1.22-1.01-3.13-1.96-4.73-1.71-3.69.58-20.83,20.95-25.15,24.3-.52,2.98,14.88,9.47,7.46,17.9-2.21,2.51-5.07,3.28-8.31,2.24s-8-9.26-10.65-8.57c-2.99.78-19.09,20.29-23.32,23.14-1.32,3.17.06,4.84,1.84,7.11,3.52,4.51,18.38,19.54,22.83,22.81,3.67,2.7,8.11,3.42,11.96.75,8.03-5.56,18.09-19.11,26.15-26.22,20.06-17.69,47.96-23.5,72.19-10.1,29.16,16.13,35.32,52.4,21.67,81.22,4.46,1.12,8.25,4.48,11.19,7.89,1.23,1.42,4.18,6.84,4.52,7.08ZM96.88,82.93c-1.78.2-3.65,1.4-5.08,2.46-2.7,2.01-15.36,14.61-17.18,17.24s-2.06,5.61-1.15,8.64,14.07,16.21,17.06,17.35c3.16,1.2,6.37,1,9.14-.91,2.39-1.65,15.89-15.18,17.58-17.59,2.29-3.26,2.86-11.62-1.22-12.32-1.53-.26-6.81,7.23-9.81,8.01-6.46,1.68-11.41-3.27-9.73-9.74.78-3.01,8.26-8.29,8-9.82-.33-1.95-5.79-3.52-7.61-3.32ZM86.59,168.87c-10.04.88-22-1.18-31.8-.02-2.3.27-3.81,1.16-5.21,3.02l-.74,37.43c-.84,3.19-10.72,10.37-13.83,13.85-30.08,33.66-25.97,86.75,9.35,114.86,5.31,4.22,18.21,12.49,24.65,13.5,2.3.36.37-2.83.37-4.14-.01-5.13,1.29-9.7,3.75-14.19-41-15.75-53.33-69.42-20.95-100.33,25.8-24.63,48.26-13.22,78.16-16.82,3.56-.43,7.31-3.2,8.23-6.73,1.13-4.34.98-29.58.37-34.85-.41-3.48-2.18-5.21-5.61-5.61-9.81-1.15-21.75.89-31.8.02v13.85c0,4.69-7,6.68-11.02,5.04-1.05-.43-3.93-3.45-3.93-4.3v-14.6ZM134.45,230.26c-.31,1.14.3,1.24.74,1.88,1.62,2.35,5.08,5.23,7.05,7.91,25.19,34.22,8.55,83.78-32.63,94.46-6.17,1.6-11.57,1.21-17.24,2.21-9.75,1.73-10.08,15.74-2.08,18.21,4.99,1.54,17.12-.28,22.48-1.54,59.37-13.91,80.91-89.74,37.66-132.81-2.82,1.96-4.38,4.63-7.51,6.55-2.49,1.52-5.54,2.89-8.46,3.13ZM139.22,276.3c0-24.96-20.21-45.2-45.15-45.2s-45.15,20.24-45.15,45.2,20.21,45.2,45.15,45.2,45.15-20.24,45.15-45.2Z"/>
  <path class="cls-2" d="M355.03,294.63c-2.61,5.1-7.18,9.6-9.11,15.09-1.82-2.06-4.61-2.97-7.29-2.38s-4.82,2.6-5.6,5.23-.06,5.48,1.87,7.44c-4.55,3.55-8.98,7.49-14.27,9.79-.11-.2-3.07-2.61-3.53-2.82-5-2.37-10.6,1.87-15.75,3.36-21.49,6.23-43.39,3.88-62.99-6.88-2.97-1.63-9.55-5.47-11.61-7.84-6.04-6.93-.32-16.47,8.65-15.46,4.12.47,12.68,7.22,17.67,9.32,52.23,22.05,101.83-28.67,78.67-80.25-2-4.44-8.57-12.83-8.9-16.58-.93-10.46,9.97-14.79,16.8-7.05,14.82,16.8,19.87,45.93,15.02,67.32-1.23,5.44-6.06,13.93-2.97,18.68.35.54,2.99,2.93,3.34,3.02Z"/>
  <ellipse class="cls-3" cx="340.26" cy="314.72" rx="7.54" ry="7.55"/>
  <path class="cls-1" d="M355.79,203.3c-.34-.24-3.29-5.66-4.52-7.08-2.95-3.41-6.74-6.77-11.19-7.89,13.65-28.82,7.49-65.09-21.67-81.22-24.23-13.4-52.13-7.59-72.19,10.1-8.06,7.11-18.12,20.66-26.15,26.22-3.85,2.67-8.29,1.94-11.96-.75-4.45-3.27-19.3-18.3-22.83-22.81-1.78-2.28-3.15-3.94-1.84-7.11,4.22-2.85,20.33-22.36,23.32-23.14,2.65-.69,7.45,7.53,10.65,8.57s6.1.27,8.31-2.24c7.41-8.43-7.98-14.92-7.46-17.9,4.32-3.35,21.46-23.72,25.15-24.3,1.6-.25,3.51.7,4.73,1.71,5.59,3.84,21.18,24.01,26.1,25.52,4.51,1.39,12.36-.62,17.64-.45,57.68,1.89,90,61.37,69.71,113.26-.54,1.39-3.99,10.79-5.8,9.53Z"/>
</svg>