<?xml version="1.0" encoding="UTF-8"?>
<svg id="Layer_1" data-name="Layer 1" xmlns="http://www.w3.org/2000/svg" viewBox="0 0 319.91 320.74">
  <defs>
    <style>
      .cls-1 {
        fill: #213aa3;
      }

      .cls-2 {
        fill: #7c1a1a;
      }

      .cls-3 {
        fill: #192e72;
      }

      .cls-4 {
        fill: #a52020;
      }
    </style>
  </defs>
  <path class="cls-1" d="M98.34,197.5c3.68,2.07,13.21,7.06,16.85,8.09,2.02.57,1.15-.39,1.45-1.38,1.62-5.43,2.28-12.37,3.83-18.13,3.16-11.71,7.31-23.13,12.09-34.25-10.9,1.87-21.11,7.63-28.42,15.93-3.85,4.36-8.96,17.48-16.49,9.53-7.48-7.89,8.78-23.29,15.1-27.87,10.6-7.7,23.41-12.74,36.64-12.71,1.31-.81,10.18-23.75,14.2-27.17,5.8-4.94,23.22-6.67,30.82-6.57-2.29-26.41-7.61-52.3-15.71-77.49-1.88-3.56-14.68-8.3-18.77-9.14C111.93,8.55,45.73,31.3,21.49,62.19c-2.25,2.87-7.03,10.2-7.35,13.61-.24,2.53,5.62,16.91,7,20.47,14.62,37.51,41.38,81.07,77.2,101.24ZM116.11,79.05c7.37,0,16.9-.78,23.93,0,3.08.34,12.16,2.55,15.43,3.52,1.38.41,7.99,3,7.98,3.96-8.73,8.89-18.93,19.54-32.55,13.62-4.63-2.01-14.7-13.42-15.85-18.06-.33-1.32-.03-3.03,1.07-3.03ZM55.77,122.44c-1.55-.86-.53-1.24-.14-2.17,2.93-7.08,15.92-19.85,22.19-24.69l11.87-7.56c3.94,9.15,1.74,30.7-8.76,34.57-5.94,2.19-19.71,2.87-25.15-.15Z"/>
  <path class="cls-4" d="M151.55,304.8c3.77,2.35,19.17,1.95,24.42,1.58,32.53-2.27,68.54-27.77,89.73-51.29,8.84-9.81,18.43-21.6,25.77-32.58,2.48-3.71,12.31-18.73,13.11-21.82,1.83-7.08-6.82-21.02-11.11-26.85-19.59-26.62-73.58-56.24-106.59-56.9-4.81-.1-19.45,1.28-22.98,3.92-2.29,1.71-10.47,18.81-12.26,22.63-19.63,41.93-33.78,95.15-14.27,139.6,2.43,5.54,9.3,18.67,14.18,21.71ZM223.28,198.68c26.92-10.09,39.37,6.06,42.86,30.89-14.21-5.37-27.68-15.31-38.88-25.41-.89-.8-4.99-4.43-3.98-5.49ZM181.91,163.71c6.5-.11,11.46,2.09,15.88,6.61,5.33,5.45,8.33,13.94,9.52,21.38l-47.84-20.95c-2.11-2.99,20.55-7.01,22.44-7.04ZM147.76,210.39c4.69-26.48,17.91-4.8,27.65,3.75,2.04,1.79,4.45,3.2,6.57,4.89,5.34,4.28,10.45,8.66,16.68,11.73,13.3,6.54,28.54,8.61,42.5,13.33,7.47,6.66,0,12.74-5.45,17.37-51.76,44-99.87,16.28-87.95-51.07Z"/>
  <g>
    <path d="M140.44,79.05c3.08.34,12.16,2.55,15.43,3.52,1.38.41,7.99,3,7.98,3.96-8.73,8.89-18.93,19.54-32.55,13.62-4.63-2.01-14.7-13.42-15.85-18.06-.33-1.32-.03-3.03,1.07-3.03,7.37,0,16.9-.78,23.93,0Z"/>
    <path d="M90.09,88.03c3.94,9.15,1.74,30.7-8.76,34.57-5.94,2.19-19.7,2.87-25.15-.15-1.55-.86-.53-1.24-.14-2.17,2.93-7.08,15.92-19.85,22.19-24.69l11.87-7.56Z"/>
    <g>
      <path d="M148.91,1.29c19.9,3,26.88,9.28,29.85,12.52,7.32,8,7.47,17.72,9.74,26.14,5.59,20.67,9.09,42.61,10.26,64.01,27.83,4.26,55.33,17.81,78.07,34.08,17.22,12.33,49.07,44,42.1,67.65-1.3,4.39-11.5,19.44-14.69,24.19-34.51,51.45-84.8,95.57-150.87,90.44-9.88-.77-12.22-4.57-17.82-12.08-16.1-21.6-22.43-51.55-21.51-78.16.1-3.01,2.14-6.36.52-9.52C53.65,198.51,21.61,139.51.38,82.04c-.32-2.38-.65-6.29,0-10.97C5.7,32.94,66.61,13.91,87.66,7.33c13.07-4.08,35.2-9.96,61.25-6.04ZM184.8,102.97c-2.29-26.41-7.61-52.3-15.71-77.49-1.88-3.56-14.68-8.3-18.78-9.14C112.34,8.55,46.13,31.3,21.89,62.19c-2.25,2.87-7.03,10.2-7.35,13.61-.24,2.53,5.62,16.91,7,20.47,14.62,37.51,41.38,81.07,77.2,101.24,3.68,2.07,13.21,7.06,16.85,8.09,2.02.57,1.15-.39,1.45-1.38,1.62-5.43,2.28-12.37,3.83-18.13,3.16-11.71,7.31-23.13,12.09-34.25-10.9,1.87-21.11,7.63-28.42,15.93-3.85,4.36-8.96,17.48-16.49,9.53s8.78-23.29,15.1-27.87c10.6-7.7,23.41-12.74,36.64-12.71,1.3-.81,10.18-23.75,14.19-27.17,5.8-4.94,23.22-6.67,30.82-6.57ZM266.1,255.09c8.84-9.81,18.43-21.6,25.77-32.58,2.48-3.71,12.31-18.73,13.11-21.82,1.83-7.08-6.82-21.02-11.11-26.85-19.59-26.62-73.58-56.24-106.59-56.9-4.81-.1-19.45,1.28-22.98,3.92-2.29,1.71-10.47,18.81-12.26,22.63-19.63,41.93-33.78,95.15-14.27,139.6,2.43,5.54,9.3,18.67,14.18,21.71,3.77,2.35,19.17,1.95,24.42,1.58,32.53-2.27,68.54-27.77,89.73-51.29Z"/>
      <path d="M182.39,219.03c5.34,4.28,10.45,8.66,16.68,11.73,13.3,6.54,28.54,8.61,42.5,13.33,7.47,6.66,0,12.74-5.45,17.37-51.76,44-99.87,16.28-87.95-51.07,4.69-26.48,17.91-4.8,27.65,3.75,2.04,1.79,4.45,3.2,6.57,4.89ZM221.68,253.52c-23.48-5.06-43.01-15.86-59.8-32.91-2.11,10.1-1.05,22.76,3.12,32.25,11.36,25.84,40.35,14.84,56.68.65Z"/>
      <path d="M266.54,229.58c-14.21-5.37-27.68-15.31-38.88-25.41-.89-.8-4.99-4.43-3.98-5.49,26.92-10.09,39.37,6.06,42.86,30.89Z"/>
      <path d="M198.2,170.32c5.33,5.45,8.33,13.94,9.52,21.38l-47.84-20.95c-2.11-2.99,20.55-7.01,22.44-7.04,6.5-.11,11.46,2.09,15.88,6.61Z"/>
    </g>
  </g>
  <path class="cls-2" d="M198.94,231.05c13.3,6.54,28.54,8.61,42.5,13.33,7.47,6.66,0,12.74-5.45,17.37-27.22,23.14-53.43,26.44-70.44,14.57l-14.6,28.14c.29.24.58.45.86.63,3.77,2.35,19.17,1.95,24.42,1.58,32.53-2.27,68.54-27.77,89.73-51.29,8.84-9.81,18.43-21.6,25.77-32.58,2.48-3.71,12.31-18.73,13.11-21.82,1.83-7.08-6.82-21.02-11.11-26.85-10.7-14.54-31.67-29.97-53.87-41.09l-48.46,93.42c2.37,1.69,4.84,3.27,7.53,4.59ZM223.55,198.98c26.92-10.09,39.37,6.06,42.86,30.89-14.21-5.37-27.68-15.31-38.88-25.41-.89-.8-4.99-4.43-3.98-5.49Z"/>
  <g>
    <path class="cls-3" d="M151,16.34c-19.55-4.01-46.57.07-71.5,9.18l43.93,113.88c5.5-1.74,11.23-2.71,17.04-2.7,1.31-.81,10.18-23.75,14.19-27.17,5.8-4.94,23.22-6.67,30.82-6.57-2.29-26.41-7.61-52.3-15.71-77.49-1.88-3.56-14.68-8.3-18.77-9.14ZM131.98,100.15c-4.63-2.01-14.7-13.42-15.85-18.06-.33-1.32-.03-3.03,1.07-3.03,7.37,0,16.9-.78,23.93,0,3.08.34,12.16,2.55,15.43,3.52,1.38.41,7.99,3,7.98,3.96-8.73,8.89-18.93,19.54-32.55,13.62Z"/>
    <path class="cls-3" d="M128.67,152.98l2.17,5.63c.91-2.27,1.84-4.53,2.81-6.78-1.68.29-3.34.68-4.98,1.15Z"/>
  </g>
</svg>