<?xml version="1.0" encoding="UTF-8"?>
<svg id="Layer_1" data-name="Layer 1" xmlns="http://www.w3.org/2000/svg" viewBox="0 0 396.07 414.6">
  <defs>
    <style>
      .cls-1 {
        fill: #a83131;
      }

      .cls-2 {
        fill: #dda21d;
      }

      .cls-3 {
        fill: #f1c343;
      }

      .cls-4 {
        fill: #4949bf;
      }

      .cls-5 {
        fill: #f9c1a8;
      }

      .cls-6 {
        fill: #d83f3f;
      }

      .cls-7 {
        fill: #5858e0;
      }
    </style>
  </defs>
  <g>
    <path d="M393.85,292.86c-4.35-14.22-12.55-29.11-17.63-43.26,8.03-4.91,17.9-10.01,17.95-20.98.08-17.61-23.9-47.14-43.11-42.04-3.23.86-8.31,6.12-9.62,6.37-.81.16-12.18-4.46-15.86-4.83-6.67-.66-14.26.01-21.92.58l-3.15-8.71c23.22-6.31,40.3-27.52,40.3-52.74,0-30.19-24.47-54.65-54.66-54.65-25.52,0-46.96,17.5-52.97,41.15-13.17,5.94-39.82,16.78-53.87,19.09-41.71,6.85-70.52-29.21-112.55-.55-7.85,5.35-14.12,12.95-18.85,21.15-16.66,28.89-29.11,63.23-45.32,92.68-4.44,10.76-2.97,21.39,2.67,31.31,19,33.4,46.95,65.85,66.82,99.18,7.92,7.54,17.84,12.28,29,11.5,1.12,5.87-3.01,23.81,3.71,25.79,1.22.36,2.28.51,3.24.51.51.12,1.04.19,1.59.19h165.31c3.84,0,6.96-3.12,6.96-6.96,0-.25-.02-.5-.04-.75,1.05-6.18-.27-14.65.33-18.68,5.37-.67,9.81-2.56,14.57-4.93,23.45-11.67,59.24-34.65,81.25-49.75,15.63-10.73,21.75-21.36,15.84-40.67ZM348.09,206.61c.74-1.05,5.83-6.1,6.73-6.34,8.66-2.35,26.61,20.45,24.76,28.99-.9,4.12-10.09,7.81-14.02,7.9-13.49.3-25.89-18.47-17.46-30.54ZM286.14,86.8c22.37,0,40.51,18.13,40.51,40.51s-18.13,40.51-40.51,40.51-40.51-18.13-40.51-40.51,18.13-40.51,40.51-40.51ZM83.11,367.61L15.62,266.1c-2.4-6.7-1.38-10.53.99-16.96,10.96-29.84,33.27-61.6,45.29-91.71,29.64-44.16,71.63-6.99,110.68-9.32,12.84-.77,46.05-11.7,59-17.84,1.56,28.79,25.39,51.65,54.57,51.65.05,0,.11,0,.16,0l2.66,7.35c-1.14-.03-2.26-.07-3.37-.15-30.94-2.29-61.66-29.31-86.34,2.68-2.6,3.37-10.38,16.31-12.92,25.52-26.27,2.49-46.83,24.6-46.83,51.53,0,17.04,8.23,32.15,20.94,41.58-1.28,2.44-2.73,5.42-4.03,8.64-1.58-.43-3.19-.77-4.84-.93-11.17-1.12-20.4,1.45-30.41,5.94l-44.88-67.62,30.3-62.31c3.11-8.27-7.57-13.26-12.36-6.37l-33.2,68.85c0,2.21,1.22,4,2.24,5.82,15.37,27.39,38.86,53.78,54.57,81.43,8.69,22.09-16.93,40.12-34.74,23.74ZM153.7,268.8c0-20.79,16.85-37.64,37.64-37.64s37.64,16.85,37.64,37.64-16.85,37.64-37.64,37.64-37.64-16.85-37.64-37.64ZM267.89,400.68h-22.69c.38-7.94,0-18.27-1.32-20.85-1.63-3.17-5.69-4.53-9.07-3.52-2.18.65-4.31,4.16-4.66,6.36-.39,2.48-.51,11.06-.24,18.01h-77.39c.12-6.31-.11-13.91-.38-17.11-.16-1.85-.09-3.62-1.34-5.17-3.42-4.23-11.63-2.9-12.64,3.27-.43,2.62-.62,11.93-.49,19.01h-22.41c0-6.57-.98-13.69-.2-16.9,11.53-6.16,19.79-19.76,19.04-33.14-.2-3.57-4.08-13.22-3.92-13.93,1.34-5.74,20.86-4.56,25.72-2.9,17.54,6.01,22.83,11.15,43.69,9.28,16.39-1.47,27.02-13.38,43.57-10.54,4.29.73,7.95,3.11,11.94,4.57-11.07,15.28-7.57,34.04,7.06,45.42,1.34,1.04,5.6,2.45,5.77,2.73,1.46,2.33.28,9.05-.04,15.4ZM373.42,319.94c-25.18,18.99-59.65,33.66-85.8,52.2-20.5,8.14-35.19-17.47-15.44-31.44,20.25-14.31,44.61-25.68,65.26-39.74,3.94-2.62,4.05-5.43,2.98-9.66-1.84-7.26-10.59-29.06-14.14-35.86-4.51-8.63-14.68-6.89-14.25,2.16.27,5.72,14.26,31.87,12.63,34.51l-58.24,35.85c-15.08-10.53-29.9-12.75-47.3-6.32-13.14,4.85-17.89,8.83-33.5,7.47-5.95-.52-11.18-2.62-16.2-4.86,1.05-2.58,2.24-5.04,3.31-7.08,5.76,2.21,12.02,3.44,18.56,3.44,28.59,0,51.77-23.18,51.77-51.77,0-25.45-18.37-46.59-42.57-50.94,4.39-6.73,8.15-14.91,9.79-17.11,13.72-18.53,28.26-8.17,45.06-3.41,12.77,3.62,30.04,6.87,43.26,6.82,7.32-.02,16.61-2.56,24.04-2.12,3.7.22,6.85,1.75,10.47,2.04-6.91,17.57,4.72,38.33,21.28,45.2,2.42,1.01,6.19.55,7.77,2.49l19.71,50.04c1.19,7.43-2.71,13.75-8.44,18.08Z"/>
    <path d="M166.15,127.65c35.25,0,63.83-28.58,63.83-63.83S201.4,0,166.15,0s-63.83,28.58-63.83,63.83,28.58,63.83,63.83,63.83ZM166.17,14.14c27.44,0,49.69,22.25,49.69,49.69s-22.25,49.69-49.69,49.69-49.69-22.25-49.69-49.69,22.25-49.69,49.69-49.69Z"/>
  </g>
  <circle class="cls-5" cx="191.34" cy="268.92" r="37.64"/>
  <path class="cls-5" d="M354.82,200.39c-.9.24-5.99,5.29-6.73,6.34-8.42,12.07,3.98,30.84,17.46,30.54,3.93-.09,13.13-3.78,14.02-7.9,1.86-8.54-16.1-31.34-24.76-28.99Z"/>
  <circle class="cls-5" cx="286.14" cy="127.42" r="40.51"/>
  <circle class="cls-5" cx="166.17" cy="63.94" r="49.69"/>
  <path class="cls-6" d="M267.89,400.68c.32-6.36,1.5-13.07.04-15.4-.17-.27-4.44-1.68-5.77-2.73-14.63-11.38-18.13-30.14-7.06-45.42-3.99-1.46-7.65-3.84-11.94-4.57-16.56-2.83-27.18,9.07-43.57,10.54-20.86,1.87-26.15-3.27-43.69-9.28-4.86-1.66-24.38-2.84-25.72,2.9-.17.7,3.72,10.36,3.92,13.93.75,13.38-7.51,26.98-19.04,33.14-.78,3.2.2,10.33.2,16.9h22.41c-.13-7.08.06-16.39.49-19.01,1.01-6.16,9.22-7.5,12.64-3.27,1.25,1.54,1.18,3.32,1.34,5.17.27,3.2.5,10.79.38,17.11h77.39c-.26-6.94-.15-15.52.24-18.01.35-2.2,2.48-5.72,4.66-6.36,3.38-1.01,7.44.35,9.07,3.52,1.33,2.58,1.7,12.91,1.32,20.85h22.69Z"/>
  <path class="cls-7" d="M117.84,343.87c-15.71-27.65-39.19-54.04-54.57-81.43-1.02-1.82-2.24-3.62-2.24-5.82l33.2-68.85c4.79-6.89,15.48-1.9,12.36,6.37l-30.3,62.31,44.88,67.62c10.01-4.48,19.24-7.06,30.41-5.94,1.65.17,3.25.5,4.84.93,1.3-3.21,2.75-6.2,4.03-8.64-12.7-9.43-20.94-24.55-20.94-41.58,0-26.92,20.56-49.04,46.83-51.53,2.54-9.21,10.32-22.16,12.92-25.52,24.68-32,55.4-4.98,86.34-2.68,1.11.08,2.24.13,3.37.15l-2.66-7.35c-.05,0-.11,0-.16,0-29.18,0-53.01-22.86-54.57-51.65-12.95,6.15-46.16,17.08-59,17.84-39.05,2.33-81.04-34.85-110.68,9.32-12.02,30.11-34.33,61.87-45.29,91.71-2.37,6.44-3.39,10.26-.99,16.96l67.49,101.51c17.81,16.39,43.43-1.65,34.74-23.74Z"/>
  <path class="cls-3" d="M287.62,372.15c26.15-18.54,60.62-33.22,85.8-52.2,5.74-4.33,9.63-10.64,8.44-18.08l-19.71-50.04c-1.58-1.94-5.35-1.48-7.77-2.49-16.56-6.88-28.19-27.64-21.28-45.2-3.62-.3-6.77-1.82-10.47-2.04-7.43-.44-16.72,2.1-24.04,2.12-13.22.04-30.49-3.2-43.26-6.82-16.8-4.77-31.34-15.12-45.06,3.41-1.63,2.2-5.4,10.39-9.79,17.11,24.2,4.34,42.57,25.49,42.57,50.94,0,28.59-23.18,51.77-51.77,51.77-6.54,0-12.8-1.23-18.56-3.44-1.07,2.04-2.26,4.49-3.31,7.08,5.02,2.23,10.25,4.34,16.2,4.86,15.61,1.37,20.36-2.61,33.5-7.47,17.41-6.42,32.22-4.21,47.3,6.32l58.24-35.85c1.63-2.63-12.36-28.79-12.63-34.51-.43-9.05,9.75-10.79,14.25-2.16,3.55,6.8,12.3,28.61,14.14,35.86,1.07,4.23.97,7.04-2.98,9.66-20.65,14.06-45.01,25.43-65.26,39.74-19.75,13.96-5.06,39.58,15.44,31.44Z"/>
  <path class="cls-1" d="M267.57,385.28c-.17-.27-4.44-1.68-5.77-2.73-14.63-11.38-18.13-30.14-7.06-45.42-3.99-1.46-7.65-3.84-11.94-4.57-16.56-2.83-27.18,9.07-43.57,10.54-2.76.25-5.24.37-7.52.39v57.19h37.85c-.26-6.94-.15-15.52.24-18.01.35-2.2,2.48-5.72,4.66-6.36,3.38-1.01,7.44.35,9.07,3.52,1.33,2.58,1.7,12.91,1.32,20.85h22.69c.32-6.36,1.5-13.07.04-15.4Z"/>
  <g>
    <path class="cls-2" d="M381.86,301.87l-19.71-50.04c-1.58-1.94-5.35-1.48-7.77-2.49-16.56-6.88-28.19-27.64-21.28-45.2-3.62-.3-6.77-1.82-10.47-2.04-7.43-.44-16.72,2.1-24.04,2.12-3.87.01-8.1-.26-12.45-.74v112.35l38.51-23.71c1.63-2.63-12.36-28.79-12.63-34.51-.43-9.05,9.75-10.79,14.25-2.16,3.55,6.8,12.3,28.61,14.14,35.86,1.07,4.23.97,7.04-2.98,9.66-20.65,14.06-45.01,25.43-65.26,39.74-19.75,13.96-5.06,39.58,15.44,31.44,26.15-18.54,60.62-33.22,85.8-52.2,5.74-4.33,9.63-10.64,8.44-18.08Z"/>
    <path class="cls-2" d="M266.07,327.74c.11.08.23.15.34.23l.49-.3c-.28.03-.56.05-.83.08Z"/>
  </g>
  <path class="cls-4" d="M76.3,256.45l44.88,67.62c7.21-3.23,14.02-5.46,21.43-6.04v-31.56c-1.99-5.5-3.09-11.43-3.09-17.62s1.1-12.12,3.09-17.63v-106.97c-29.54-7.41-58.57-19.8-80.71,13.18-12.02,30.11-34.33,61.87-45.29,91.71-2.37,6.44-3.39,10.26-.99,16.96l67.49,101.51c17.81,16.39,43.43-1.65,34.74-23.74-15.71-27.65-39.19-54.04-54.57-81.43-1.02-1.82-2.24-3.62-2.24-5.82l33.2-68.85c4.79-6.89,15.48-1.9,12.36,6.37l-30.3,62.31Z"/>
</svg>