<?xml version="1.0" encoding="UTF-8"?>
<svg id="Layer_1" data-name="Layer 1" xmlns="http://www.w3.org/2000/svg" viewBox="0 0 310.91 357.09">
  <defs>
    <style>
      .cls-1 {
        fill: #00b7bb;
      }

      .cls-2 {
        fill: #414141;
      }

      .cls-3 {
        fill: #fefdfd;
      }

      .cls-4 {
        fill: #bf2026;
      }
    </style>
  </defs>
  <path class="cls-3" d="M309.3,319.39h0c-1.92-17.65,2.71-81.79,0-167-.44-13.71-.69-16.82-1.17-20.33-1.24-9.21-3.43-18.07-6.37-26.64-26.35-2.5-46.97-24.69-46.97-51.69,0-5.3.8-10.41,2.27-15.23-4.84-4.63-10.16-9.11-16.86-13.51-95.89-63.1-230.96-.02-238.9,114.92-4.12,59.65,3.05,123.86,0,183.98,1.06,10.72,9.57,23.37,18.99,28.51,22.88,12.47,51.41-1.12,57.5-26,5.31,10.76,8.63,19.2,19.59,25.41,23.57,13.38,51.14-.16,56.94-25.92.35-1.56-.68-1.74,1.97-1.5,2.73,25.58,32.39,39.96,55.04,28.54,11.47-5.78,16.39-14.13,19.94-26.07,1.6-5.38,3.58,5.52,4.52,7.53,16.58,35.72,70.57,27.31,73.5-14,0,0,0,0,0,0,0,0,0,0,0,0l.98-.5-.98-.5h0Z"/>
  <path class="cls-2" d="M310.53,248.39c0-31.88.88-64.17,0-96v96Z"/>
  <path class="cls-1" d="M106.06,163.78c-7.03,0-12.73-5.7-12.73-12.73s5.7-12.73,12.73-12.73c4.21,0,7.93,2.05,10.25,5.2.01-.32.02-.63.02-.95,0-15.24-12.35-27.59-27.59-27.59s-27.59,12.35-27.59,27.59,12.35,27.59,27.59,27.59c6.72,0,12.88-2.41,17.66-6.4-.12,0-.23.02-.35.02Z"/>
  <path class="cls-1" d="M241.8,163.78c-7.03,0-12.73-5.7-12.73-12.73s5.7-12.73,12.73-12.73c4.21,0,7.93,2.05,10.25,5.2.01-.32.02-.63.02-.95,0-15.24-12.35-27.59-27.59-27.59s-27.59,12.35-27.59,27.59,12.35,27.59,27.59,27.59c6.72,0,12.88-2.41,17.66-6.4-.12,0-.23.02-.35.02Z"/>
  <path class="cls-4" d="M193.6,221.86c-4.19,4.19-10.93,4.27-15.24.26h-.01s-10.3-10.29-10.3-10.29c4.87-1.14,14.34-4.98,21.05-10.01.85.86,2.1,2.12,4.76,4.8,4.02,4.3,3.94,11.04-.26,15.24Z"/>
  <path d="M185.15,213.68c-.49.49-1.27.49-1.77.03l-5.14-5.14c.8-.36,1.61-.75,2.43-1.16,1.84,1.84,4,4,4.51,4.5.46.5.45,1.28-.03,1.77Z"/>
  <path class="cls-1" d="M195.09,186.79c-6.22-8.6-12.5,1.65-17.23,4.9-11.84,8.12-27.67,8.5-40,1.33-5.4-3.14-13.9-14.47-20.03-6.88-8.14,10.09,13.97,22.02,21.44,24.47,9.63,3.17,18.39,3.9,28.31,1.79.15-.03.31-.07.47-.11,2.51-.59,6.24-1.89,10.19-3.72.8-.36,1.61-.75,2.43-1.16,2.94-1.48,5.89-3.22,8.43-5.13,6.08-4.56,9.89-10.09,5.99-15.49Z"/>
</svg>