<?xml version="1.0" encoding="UTF-8"?>
<svg id="Layer_1" data-name="Layer 1" xmlns="http://www.w3.org/2000/svg" viewBox="0 0 167.67 159.31">
  <defs>
    <style>
      .cls-1 {
        fill: #ffd2c0;
      }

      .cls-2 {
        fill: #3a1a00;
      }

      .cls-3 {
        fill: #f2ad97;
      }
    </style>
  </defs>
  <path d="M.33,140.9c.8-2.6,7.5-1.03,7.97-1.49.69-.68-.99-10.98.43-13s7.32.03,7.54-1.5c-1.32-5.78,1.67-45.54-.01-47.2-.43-.43-5.38.71-7.03-.43-2.19-1.52-.16-12.75-.93-13.5-.5-.49-6.19,1-7.53-.93-.78-1.11-.78-16.93,0-18.04,1.37-1.96,7.65,0,9.91-2.03L80.98.66l3.42-.66c24.71,13.14,48.54,28.53,72.75,42.79,2.26,2.03,8.54.07,9.91,2.03.67.95.81,15.77.29,17.34-1,3.04-7.21,1.02-7.83,1.63-.69.68.99,10.97-.43,13s-8.92.52-11.51.93v47.19c.22,1.56,9.05-.36,11.01,1.01,2.2,1.53.16,12.75.93,13.5.31.3,7.97-.83,7.97,1.49v16.92c0,.11-1.39,1.49-1.49,1.49H1.82c-.11,0-1.49-1.39-1.49-1.49,0-3.63-.75-14.49,0-16.92ZM140.63,43.89L83.6,9.22,26.2,43.89h19.4c7.47-3.08,31.84-21.67,37.82-22,1.2-.07,2.35.08,3.42.66,5,2.03,33.03,21.33,35.38,21.33h18.41ZM63.02,43.89h41.79l-21.21-12.78-20.58,12.78ZM159.54,51.85H8.29v3.98h151.24v-3.98ZM151.58,63.79H16.25v5.97h135.32v-5.97ZM24.21,77.72v47.76h7.96v-47.76h-7.96ZM52.07,77.72h-11.94v47.76h11.94v-47.76ZM67.99,77.72h-7.96v47.76h7.96v-47.76ZM87.89,77.72h-11.94v47.76h11.94v-47.76ZM103.81,77.72h-7.96v47.76h7.96v-47.76ZM123.71,77.72h-11.94v47.76h11.94v-47.76ZM131.67,77.72v47.76h7.96v-47.76h-7.96ZM151.58,133.44H16.25v5.97h135.32v-5.97ZM159.54,147.37H8.29v3.98h151.24v-3.98Z"/>
  <polygon class="cls-3" points="104.67 43.89 83.46 31.11 62.88 43.89 104.67 43.89"/>
  <path class="cls-1" d="M83.46,9.22L26.07,43.89h19.4c7.47-3.08,31.84-21.67,37.82-22,1.2-.07,2.35.08,3.42.66,5,2.03,33.03,21.33,35.38,21.33h18.41L83.46,9.22Z"/>
  <rect class="cls-1" x="8.37" y="51.85" width="151.24" height="3.98"/>
  <rect class="cls-3" x="16.33" y="63.79" width="135.32" height="5.97"/>
  <rect class="cls-1" x="131.62" y="77.72" width="7.96" height="47.76"/>
  <rect class="cls-2" x="111.72" y="77.72" width="11.94" height="47.76"/>
  <rect class="cls-1" x="96.13" y="77.72" width="7.96" height="47.76"/>
  <rect class="cls-2" x="76.23" y="77.72" width="11.94" height="47.76"/>
  <rect class="cls-1" x="60.31" y="77.72" width="7.96" height="47.76"/>
  <rect class="cls-2" x="40.41" y="77.72" width="11.94" height="47.76"/>
  <rect class="cls-1" x="24.49" y="77.72" width="7.96" height="47.76"/>
  <rect class="cls-1" x="16.33" y="133.44" width="135.32" height="5.97"/>
  <rect class="cls-3" x="8.37" y="147.37" width="151.24" height="3.98"/>
</svg>