<?xml version="1.0" encoding="UTF-8"?>
<svg id="Layer_1" data-name="Layer 1" xmlns="http://www.w3.org/2000/svg" viewBox="0 0 387.89 274.93">
  <defs>
    <style>
      .cls-1 {
        fill: #593d36;
      }

      .cls-2 {
        fill: #434343;
      }

      .cls-3 {
        fill: #6e6e6e;
      }

      .cls-4 {
        fill: #747474;
      }

      .cls-5 {
        fill: #565656;
      }
    </style>
  </defs>
  <path class="cls-1" d="M314.64,76.88c23.13,47.24,74.32,100.03,73.24,154.67-.99,49.62-59.66,47.87-94.84,37.4,3.31-11.03-4.53-22.71-5.1-30.23-.55-7.17,5.29-15.36,4.69-23.96-.65-9.31-8.36-15.78-9.55-22.29s.69-13.03-1.24-20.68c-3.39-13.42-20.39-21.94-32.95-24.28.22-2.4-.16-4.89,0-7.31,1.61-24.96,2.91-12.72,16.95-23.23,6.97-5.22,13.98-13.41,17.62-21.33,5.28-11.45-1.55-14.44,11.7-16.32,6.45-.91,12.98-1.92,19.48-2.44Z"/>
  <path class="cls-2" d="M258.63,35.48c19.63,9.81,26.74-7.27,40.3-9.6,9.3-1.6,23.81-1.55,27.4,8.93,4.83,14.11-15.35,9.02-24.52,10.97-7.61,1.62-12.87,6.42-21.26,6.74-10.16.39-14.58-5.57-21.13-13.01-1.2-1.37-.49-3.7-.79-4.04Z"/>
  <path class="cls-2" d="M217.23,142.63c.49,10.24-35.09,30.72-38.95,26.78.56-11.66,14.62-18.13,12.16-31.65,12.65.68,14.93.92,26.79,4.87Z"/>
  <path class="cls-5" d="M220.88,40.35c6.7,2.57,10.85,6.13,13.42,8.99,14.87,16.64,10.98,48.81-6.12,64.06-4.43,3.96-9.01,6.11-12.17,7.31h-86.45c-4.22-25.72-3.63-54.54,0-80.36h91.32ZM214.8,52.53h-65.75v19.48h59.66c5.17,0,7.52-14.86,6.09-19.48ZM214.8,106.1c1.43-4.62-.91-19.48-6.09-19.48h-59.66v19.48h65.75Z"/>
  <path class="cls-2" d="M214.8,52.53c1.43,4.62-.91,19.48-6.09,19.48h-59.66v-19.48h65.75Z"/>
  <path class="cls-2" d="M214.8,106.1h-65.75v-19.48h59.66c5.17,0,7.52,14.86,6.09,19.48Z"/>
  <path class="cls-3" d="M314.64,76.88c-.77-1.57,1.1-6.39-2.3-8.61-5.44-3.55-30.34-3.16-31.79-15.75-10.16.39-14.58-5.57-21.13-13.01-1.2-1.37-.49-3.7-.79-4.04-3.2-3.63-6.82-7.01-9.72-10.99l-185.94-1.06c-3.49-.85-1.53-7.54-5.84-9.89-1.89-1.03-26.96-5.05-28.34-4.66-6.37,1.84-2.98,13.39-3.95,14.44-1.69,1.83-21.44-3.88-24.02,3.98C-.66,31.84,0,83.78,1.71,86.62c.66,1.09,6.62,4.87,7.3,4.87h98.63c1.29,9.6-2.07,23.52.51,32.37,2.07,7.12,15.07,11.51,16.32,15.54,1.33,4.3-2.26,9.27-1.98,13.93,3.37,56,100.32,72.92,121.26,24.34,5.02-11.64,4.1-18.52,5.14-30.17.22-2.4-.16-4.89,0-7.31-10.02,5.86-24.5-9.69-25.95-9.82-19.69-1.78-49-1.75-70.36-2.45-18.87-.61-7.68,12.31-23.01,9.86,2.33-15.06-3.94-7.16-9.78-10.89-8.59-5.47-2.04-37.53-6.25-40.55l-105.73-4.6v-47.49c0-5.95,18.27-1.97,22.09-4.69,3.79-2.7.71-10.72,3.56-11.23,2.39-.42,17.02,1.53,19.05,2.44,2.9,1.3.63,5.54,2.19,7.1.23.23.5.32.78.45,2.99,1.35,8.16,1.79,11.21,1.96,92.36.09,159.48.25,166.46.28,1.82,0,5.6.17,8.05,2.75,1.89,1.99,2.12,4.52,2.24,5.38,1.76,12.33,30.69,31.33,43.29,32.75,1.09.12,4.86.43,6.95,3.14,1.25,1.63,1.47,3.55,1.49,4.74,6.45-.91,12.98-1.92,19.48-2.44ZM145.67,137.61c14.86.83,29.95-.65,44.77.15,12.65.68,14.93.92,26.79,4.87,3.25,1.08,9.79-2.1,11.84,3.98,19.84,58.81-110.43,50.22-83.4-9ZM132.05,151.75c1.66,0,3.01,1.35,3.01,3.01s-1.35,3.01-3.01,3.01-3.01-1.35-3.01-3.01,1.35-3.01,3.01-3.01Z"/>
  <path class="cls-4" d="M286.72,71.44c-12.6-1.41-41.53-20.42-43.29-32.75-.12-.86-.36-3.39-2.24-5.38-2.45-2.58-6.23-2.75-8.05-2.75-6.98-.02-74.1-.18-166.46-.28-3.04-.16-8.22-.61-11.21-1.96-.28-.13-.55-.22-.78-.45-1.45-1.45.41-5.21-1.65-6.78-.18-.11-.34-.21-.53-.32,0,0,0,0,0,0-2.03-.91-16.66-2.86-19.05-2.44,0,0,0,0,0,0-2.85.51.23,8.53-3.56,11.23-1.67,1.19-6.11,1.1-10.57,1.12-1.28,0-2.55.02-3.77.08-.61.03-1.2.07-1.77.12-3.41.32-5.98,1.15-5.98,3.38v47.49l105.73,4.6c2.5,1.79,1.21,13.82,1.54,24.44.04,1.12.09,2.22.17,3.29.23,3.22.68,6.18,1.53,8.51.7,1.94,1.67,3.45,3.02,4.3,1.46.93,2.95,1.14,4.32,1.15.34,0,.68,0,1.01-.01.16,0,.32-.01.48-.02.32-.01.62-.02.92-.02.88,0,1.65.08,2.24.48.2.13.38.3.53.51.16.21.29.46.41.77.28.76.41,1.85.36,3.39-.04,1.23-.2,2.76-.49,4.64,5.75.92,7.77-.32,9.05-2.2.21-.31.4-.64.59-.99s.36-.69.55-1.05c.09-.18.19-.36.28-.54.39-.72.84-1.43,1.45-2.09.92-.99,2.21-1.85,4.24-2.4,1.36-.36,3.05-.59,5.18-.61.53,0,1.09,0,1.68.02,10.68.35,23.35.51,35.8.82,12.46.3,24.71.74,34.55,1.63.59.05,3.33,2.65,7.05,5.32.86.62,1.77,1.24,2.72,1.83.32.2.64.39.96.58,4.86,2.87,10.53,4.83,15.23,2.08h0c1.61-24.96,2.91-12.72,16.95-23.23,6.97-5.22,13.98-13.41,17.62-21.33,5.28-11.45-1.55-14.44,11.7-16.32-.02-1.19-.23-3.11-1.49-4.74-2.09-2.71-5.86-3.02-6.95-3.14ZM228.18,113.4c-1.66,1.35-11.46,7.31-12.17,7.31h-86.45c-4.22-25.72-3.63-54.54,0-80.36h91.32c1.7,2.78,12.91,8.18,13.42,8.99,10.6,17.02,10.26,50.72-6.12,64.06Z"/>
</svg>