<?xml version="1.0" encoding="UTF-8"?>
<svg id="Layer_1" data-name="Layer 1" xmlns="http://www.w3.org/2000/svg" viewBox="0 0 211.17 110.36">
  <defs>
    <style>
      .cls-1 {
        fill: #79490b;
      }

      .cls-2 {
        fill: #a67b43;
      }

      .cls-3 {
        fill: #050404;
      }

      .cls-4 {
        fill: #9c733f;
      }
    </style>
  </defs>
  <path class="cls-4" d="M149.11,12.09c4.42,13.13,3.46,32.63,7.1,46.51.23,5.05-3.26,6.16-7.55,6.54-27.39,2.43-58.32-1.95-86.1,0-6.38-.58-7.7-2.24-7.45-8.52.54-13.76,5.82-30.48,7-44.53,12.89-.29,26.31,6.32,38.75,7.74,15.48,1.77,32.54-8.01,48.25-7.74Z"/>
  <path class="cls-2" d="M149.11,12.09c-15.71-.27-32.77,9.51-48.25,7.74-12.44-1.42-25.86-8.03-38.75-7.74.25-3.21,3.55-4.97,6.47-5.02,9.75-.18,25.79,7.57,36.08,8.05s27.64-8.24,37.99-8.05c3.75.07,5.36,1.73,6.47,5.02Z"/>
  <g>
    <path class="cls-4" d="M49.11,105.09c-.66-.11-1.9-1.7-3.53-1.95-5.58-.86-11.22.68-17.29-.73-20.17-4.7-31.11-36.71-9.18-43.8,15.85-5.13,26.23,6.63,38.32,13.66,28.27,16.43,61.2,17.95,90.55,3.21,14.57-7.32,28.15-23.84,46.17-15.93,20.36,8.94,6.83,40.79-13.63,43.46-5.02.66-12.31-.88-16.67.13-.89.21-1.39,1.88-1.74,1.96-1.29.29-5.44-1.06-8-1,1.51-2.12.56-5.09-1.92-5.55-19.19-2.74-38.01-6.85-57.56-5.44-4.34.31-35.92,4.92-37.29,6.23-.97.93-.76,3.1-1.23,3.76-.82,1.15-5.69,2.22-7,2Z"/>
    <path class="cls-3" d="M49.11,105.09c.07,1.64.45,4.16-1.64,4.86-1.89.64-14.12.4-16.85.12-20.81-2.1-37.59-27.25-27.72-46.69,8.53-16.79,31.32-15.21,45.19-6.3,3.62-14.25,2.64-34.58,7.54-47.97C57.78,3.27,62.36.16,68.61,0c10.48-.25,26.83,8.08,37,8.08,9.13,0,24.3-6.95,34.11-7.9,9.04-.87,14.12,2.67,16.54,11.25,3.91,13.86,3.65,31.35,6.86,45.65,14.69-9.27,37.66-10.51,45.77,7.72,8.37,18.81-7.57,42.76-27.39,45.17-2.84.35-15.73.66-17.75-.03s-1.71-3.22-1.64-4.86c.36-.08.85-1.75,1.74-1.96,4.37-1.01,11.65.53,16.67-.13,20.46-2.68,33.99-34.52,13.63-43.46-18.02-7.91-31.59,8.6-46.17,15.93-29.35,14.74-62.29,13.23-90.55-3.21-12.09-7.03-22.47-18.79-38.32-13.66-21.94,7.1-10.99,39.11,9.18,43.8,6.07,1.41,11.71-.13,17.29.73,1.63.25,2.86,1.84,3.53,1.95ZM62.11,12.09c-1.18,14.05-6.46,30.77-7,44.53-.25,6.28,1.08,7.94,7.45,8.52,27.78-1.95,58.7,2.43,86.1,0,4.29-.38,7.78-1.49,7.55-6.54-3.64-13.88-2.68-33.38-7.1-46.51-1.11-3.29-2.71-4.95-6.47-5.02-10.34-.19-27.44,8.55-37.99,8.05s-26.33-8.23-36.08-8.05c-2.91.05-6.21,1.81-6.47,5.02ZM139.11,71.09h-67c.27,1.74,1.99,1.74,3.23,2.27,16.85,7.25,43.69,7.25,60.55,0,1.23-.53,2.96-.53,3.23-2.27Z"/>
    <path class="cls-3" d="M56.11,103.09c.46-.65.26-2.83,1.23-3.76,1.37-1.31,32.94-5.92,37.29-6.23,19.56-1.41,38.37,2.7,57.56,5.44,2.49.46,3.43,3.43,1.92,5.55-19.55.48-37.51-5.32-57.49-3.99-11.74.78-25.69,5.62-37.11,5.06-2.03-.1-2.46-.21-3.4-2.07Z"/>
    <path class="cls-1" d="M139.11,71.09c-.27,1.74-1.99,1.74-3.23,2.27-16.85,7.25-43.69,7.25-60.55,0-1.23-.53-2.96-.53-3.23-2.27h67Z"/>
  </g>
</svg>