<?xml version="1.0" encoding="UTF-8"?>
<svg id="Layer_1" data-name="Layer 1" xmlns="http://www.w3.org/2000/svg" viewBox="0 0 226 223">
  <defs>
    <style>
      .cls-1 {
        fill: #b71616;
      }

      .cls-2 {
        fill: #f34133;
      }
    </style>
  </defs>
  <path class="cls-1" d="M61,0c8.82,2.42,17.05,4.7,24.92,9.58,13.55,8.42,21.91,23.57,29.1,37.41,10.48-5.08,19.83-13.1,31.22-16.35,35.68-10.18,73.89,18.75,74.78,55.9.04,1.54-.82,11.79-1.15,12.32-1.76,2.87-9.54-3.01-12.19-4.04-16.42-6.38-30.32-6.52-46.05,2.04-6-7.21-10.59-13.28-18.96-18.03-27.64-15.68-63.51-5.93-73.94,25.4-10.79,32.43,8.7,63.77,25.07,90.28-.09,1.26-20.79,13.26-21.79,12.49C48.32,160.34,10.11,119.95,0,67v-20C3.96,30.03,10.98,15.03,26.98,6.48c6.09-3.25,11.54-3.15,17.02-6.48h17Z"/>
  <path class="cls-2" d="M128,223c-15.37-31.04-51.7-68.69-47.88-105.38,3.64-34.99,45.77-41.75,66.29-16.54,2.31,2.83,8.43,14.96,11.07,14.93,1.04-.01,14.36-8.53,18.31-9.74,2.01-.61,16.85-1.64,18.54-1.25.7.16.73,1.62.88,1.65.89.21,2.07-.58,3.54-.04,14.49,5.31,23.36,16.75,27.25,31.36v13c-6.03,18.4-22.06,28.18-37.69,37.81-16,9.85-33.57,18.63-49.98,28.02-3.06,1.75-7.01,3.59-9.33,6.17h-1Z"/>
</svg>