<?xml version="1.0" encoding="UTF-8"?>
<svg id="Layer_1" data-name="Layer 1" xmlns="http://www.w3.org/2000/svg" viewBox="0 0 486.63 512">
  <defs>
    <style>
      .cls-1 {
        fill: #4d4d4d;
      }

      .cls-2 {
        fill: #f75428;
      }

      .cls-3 {
        fill: #b17114;
      }

      .cls-4 {
        fill: #cbcbcb;
      }

      .cls-5 {
        fill: #985c0d;
      }
    </style>
  </defs>
  <path class="cls-2" d="M17.41,512c-.25-3.01-4.56-3.53-7.02-5.48-8.73-6.9-12.41-18.64-9.29-29.34,3.46-11.87,18.1-20.79,25.81-30.16,12.18,13.77,32.13,24.16,25.81,45.8-1.48,5.06-5.54,11.1-9.82,14.18-2.62,1.88-7.19,2.1-7.49,5.01h-18Z"/>
  <g>
    <g>
      <path class="cls-4" d="M355.41,237c-17.89,17.42-35.32,35.38-53,53-26.32,18.14-56.55,28.91-88.51,31.99-24.71,2.38-49.89-2.21-70.5,15.5-13.16,11.31-19.4,33.96-36.77,39.23s-37.31,1.59-36.22-19.72c67.44-67.54,134.69-135.33,202-203,.1.13,1.96.31,3.02,1.43,25.37,26.86,53.8,55.99,79.98,81.57Z"/>
      <g>
        <path class="cls-1" d="M454.41,0l13.31,7.19c21.72,14.92,24.88,42.46,8.7,63.09-.71.9-1.94.63-2.01.72-6.99-6.61-14.2-13.2-21-20-12.81-12.81-25.37-26-38-39,3.74-4.95,9.45-7.37,15.02-9.53,1.54-.6,3.57.29,2.98-2.47h21Z"/>
        <path class="cls-5" d="M474.41,71c-.33.39-.35,2.45-1.43,3.02l-116.57,116.98c-6.74-6.79-14.88-13.95-22-21l119-119c6.8,6.8,14.01,13.39,21,20Z"/>
        <g>
          <path class="cls-3" d="M453.41,51l-119,119c-13.05-12.93-26.69-25.33-39-39L415.41,12c12.63,13,25.19,26.19,38,39ZM417.82,76.23c0-4.07-3.3-7.36-7.36-7.36s-7.36,3.3-7.36,7.36,3.3,7.36,7.36,7.36,7.36-3.3,7.36-7.36ZM368.81,125.15c0-4.04-3.28-7.32-7.32-7.32s-7.32,3.28-7.32,7.32,3.28,7.32,7.32,7.32,7.32-3.28,7.32-7.32Z"/>
          <circle class="cls-1" cx="410.46" cy="76.23" r="7.36"/>
          <circle class="cls-1" cx="361.49" cy="125.15" r="7.32"/>
        </g>
      </g>
    </g>
    <g>
      <path class="cls-2" d="M302.41,290c-75.37,75.12-131.12,151.96-252.02,131.52-11.97-2.02-23.63-5.36-34.97-9.54,17.59-19.05,36.7-36.66,55-54.99-1.09,21.31,19.54,24.78,36.22,19.72s23.61-27.93,36.77-39.23c20.62-17.71,45.79-13.12,70.5-15.5,31.96-3.08,62.19-13.85,88.51-31.99Z"/>
      <path class="cls-1" d="M295.41,131c12.31,13.67,25.95,26.07,39,39,7.12,7.05,15.26,14.21,22,21,.19.19.36,1.95,1.43,3.02,9.99,10.08,27.8,24.91,35.56,35.48,10.76,14.64-5.71,33.45-21.91,21.91-3.45-2.46-12.88-11.28-16.08-14.42-26.17-25.58-54.61-54.7-79.98-81.57-1.06-1.12-2.92-1.3-3.02-1.43-.2-.27-1.85-5.92-1.94-6.56-2.21-15.44,11.66-23.99,24.94-16.44Z"/>
    </g>
  </g>
</svg>