<?xml version="1.0" encoding="UTF-8"?>
<svg id="Layer_1" data-name="Layer 1" xmlns="http://www.w3.org/2000/svg" viewBox="0 0 239.77 239.96">
  <defs>
    <style>
      .cls-1 {
        fill: #f78a01;
      }

      .cls-2 {
        fill: #ddf1fb;
      }

      .cls-3 {
        fill: #afe1f9;
      }

      .cls-4 {
        fill: #fea326;
      }

      .cls-5 {
        fill: #798f9b;
      }
    </style>
  </defs>
  <path class="cls-3" d="M223.7,80.35c0,35.37-28.67,64.05-64.05,64.05s-64.05-28.67-64.05-64.05S124.28,16.31,159.66,16.31s64.05,28.67,64.05,64.05ZM154.38,23.44c-47.7,4.49-68.98,62.86-35.15,96.63l80.28-79.56c-10.05-12.38-29.28-18.56-45.13-17.07Z"/>
  <path class="cls-5" d="M96.59,160.15c-1.27-1.34-6.75-4.74-9-7-2.59-2.61-5.37-6.57-8-9,1.73-3.64,15.02-13.73,15.01-16.48-29.63-41.7-13.66-101.62,33.72-121.28,63.47-26.33,128.15,33.17,107.55,98.55-16.34,51.84-79.77,72.05-123.65,40.28l-15.64,14.93ZM223.7,80.35c0-35.37-28.67-64.05-64.05-64.05s-64.05,28.67-64.05,64.05,28.67,64.05,64.05,64.05,64.05-28.67,64.05-64.05Z"/>
  <path class="cls-2" d="M154.38,23.44c15.85-1.49,35.08,4.69,45.13,17.07l-80.28,79.56c-33.83-33.77-12.55-92.14,35.15-96.63Z"/>
  <g>
    <path class="cls-4" d="M79.59,144.15c2.63,2.43,5.41,6.39,8,9L12.59,228.15c-3.91-3.82-15.16-11.29-12.05-16.55l70.5-70.5c3.24-2.67,6.32.99,8.55,3.05Z"/>
    <path class="cls-1" d="M96.59,160.15c1.57,1.65,4.49,7.48,2.05,9.56L29.15,239.2c-6.19,3.68-12.36-6.95-16.56-11.05l75-75c2.25,2.26,7.73,5.66,9,7Z"/>
  </g>
</svg>