<?xml version="1.0" encoding="UTF-8"?>
<svg id="Layer_1" data-name="Layer 1" xmlns="http://www.w3.org/2000/svg" viewBox="0 0 594.34 553.01">
  <path d="M223.97,326.92l-59.01-139-131.92,77.08.38,2.95,70.32,163.7c11.68,30.62-16.86,60.53-46.29,63.26-75.37,6.99-61.86-92.81,13.01-86.97,3.23.25,6.41,2.39,9.5,1.5L0,223.35l.98-1.91,153.5-89.51,2.68,4.3c27.04,68.38,60.1,134.61,87,203,7.07,17.98,11.15,28.46.24,46.6-27.99,46.54-108.43,28.52-91.47-24.47,8.91-27.86,43.77-43.02,71.05-34.45ZM154.96,164.93L23.05,241.02l3.45,9.89,131.35-76.15-2.88-9.84Z"/>
  <path d="M423.98,449.91c4.31-3.88,8.72-7.67,11.82-12.67,20.4-32.82-17.16-57.04-29.37-84.28l-5.44-12.04-46.07,179.43c-22.88,65.17-122.22,21.01-98.12-30.12,16.11-34.17,72.25-28.42,91.17.68l51.06-194.97c.51-.36,10.99,2.17,11.51,2.92.64.91,1.14,18.46,1.72,22.28,5.12,33.67,20.41,40.85,34.89,66.11,14.79,25.78,8.12,56.61-23.17,62.66Z"/>
  <path d="M475.98,31.93c.56.63-2.68,8.73-3.25,10.24-17.03,44.79-36.22,98.77-56.58,141.42-7.77,16.27-18.16,22.17-36.66,20.32-33.74-3.38-49.01-49.87-13.33-60.31,18.91-5.53,37.67,4.36,47.8,20.31l46.01-115.99-104.99-27.02-53.83,135.69c-12.79,26.57-54.74,20.07-66.06-4.31-17.13-36.91,34.44-54.84,59.85-25.85,1.11,1.27,3.95,7.86,5.53,5.49L353.62,0l122.36,31.93Z"/>
  <path d="M532.96,188.93c-.16-.13-2.14-.39-2.04.58l-46.46,119.42c-1.67,2.23-5.78-1.47-8.45-1.04l.19-3.22c19.75-43.02,32.52-92.93,52.75-135.27,11.61-24.3,42.3-24.64,58-4.95,26.11,32.72-23.29,60.67-50.48,30.49-1.46-1.62-3.25-5.78-3.51-6Z"/>
</svg>