<?xml version="1.0" encoding="UTF-8"?>
<svg id="Layer_1" data-name="Layer 1" xmlns="http://www.w3.org/2000/svg" xmlns:xlink="http://www.w3.org/1999/xlink" viewBox="0 0 588.5 530.73">
  <defs>
    <style>
      .cls-1, .cls-2, .cls-3, .cls-4, .cls-5 {
        stroke-miterlimit: 10;
      }

      .cls-1, .cls-2, .cls-4 {
        stroke: #095a89;
        stroke-width: 11px;
      }

      .cls-1, .cls-5 {
        fill: none;
      }

      .cls-2, .cls-6 {
        fill: url(#linear-gradient-3);
      }

      .cls-7 {
        fill: url(#linear-gradient-2);
      }

      .cls-3, .cls-8 {
        fill: #faec3d;
      }

      .cls-3, .cls-5 {
        stroke: #ba5c04;
        stroke-width: 19px;
      }

      .cls-9 {
        fill: url(#linear-gradient-4);
      }

      .cls-10 {
        clip-path: url(#clippath-1);
      }

      .cls-4 {
        fill: url(#linear-gradient-5);
      }

      .cls-11 {
        fill: #e95b53;
      }

      .cls-12 {
        fill: #095a89;
        opacity: .47;
      }

      .cls-13 {
        fill: url(#linear-gradient-6);
      }

      .cls-14 {
        fill: #f8fbfc;
      }

      .cls-15 {
        fill: #933f00;
        opacity: .21;
      }

      .cls-16 {
        clip-path: url(#clippath-2);
      }

      .cls-17 {
        fill: url(#linear-gradient);
      }

      .cls-18 {
        clip-path: url(#clippath);
      }

      .cls-19 {
        opacity: .22;
      }
    </style>
    <clipPath id="clippath">
      <circle class="cls-3" cx="265.37" cy="265.37" r="255.87"/>
    </clipPath>
    <linearGradient id="linear-gradient" x1="276.5" y1="142.82" x2="429.87" y2="142.82" gradientUnits="userSpaceOnUse">
      <stop offset="0" stop-color="#4c1c0e"/>
      <stop offset=".19" stop-color="#4f1c0e"/>
      <stop offset=".7" stop-color="#9b4328"/>
      <stop offset="1" stop-color="#9d4429"/>
    </linearGradient>
    <linearGradient id="linear-gradient-2" x1="53.81" y1="292.49" x2="200.93" y2="292.49" xlink:href="#linear-gradient"/>
    <linearGradient id="linear-gradient-3" x1="68.69" y1="411.69" x2="172.73" y2="411.69" gradientUnits="userSpaceOnUse">
      <stop offset="0" stop-color="#53d9f6"/>
      <stop offset=".45" stop-color="#59e1fa"/>
      <stop offset="1" stop-color="#3cb7ed"/>
    </linearGradient>
    <clipPath id="clippath-1">
      <path class="cls-2" d="M145.29,336.94c.59-4.48-4.27-7.65-8.1-5.27-20.25,12.56-58.62,41.78-66.36,88.88-1.95,11.88-7.29,44.32,12.66,61.46,21.18,18.19,62.38,11.9,79.85-12.11,13.07-17.97,8.97-40.52,8.07-44.86-3.52-17.19-12.58-21.77-19.98-37.9-4.86-10.61-9.22-26.67-6.15-50.19Z"/>
    </clipPath>
    <linearGradient id="linear-gradient-4" x1="574.42" y1="110.49" x2="678.46" y2="110.49" gradientTransform="translate(638.23 -423.77) rotate(112.83) scale(1 -1)" xlink:href="#linear-gradient-3"/>
    <linearGradient id="linear-gradient-5" x1="574.42" y1="110.49" x2="678.46" y2="110.49" gradientTransform="translate(638.23 -423.77) rotate(112.83) scale(1 -1)" xlink:href="#linear-gradient-3"/>
    <clipPath id="clippath-2">
      <path class="cls-4" d="M418.54,190.1c-4.35-1.2-5.4-6.9-1.72-9.51,19.43-13.79,61.26-37.81,107.67-26.67,11.71,2.81,43.67,10.48,51.73,35.52,8.55,26.58-13.24,62.11-42.15,68.89-21.63,5.07-40.82-7.46-44.48-9.97-14.48-9.92-15.18-20.04-27.18-33.12-7.89-8.6-21-18.85-43.87-25.14Z"/>
    </clipPath>
    <linearGradient id="linear-gradient-6" x1="248.96" y1="252.36" x2="424.52" y2="474.02" xlink:href="#linear-gradient"/>
  </defs>
  <g>
    <circle class="cls-8" cx="265.37" cy="265.37" r="255.87"/>
    <g class="cls-18">
      <path class="cls-15" d="M43.53,141.47c14.89-11.93,44.2-25.3,56.92-15.35,10.6,8.29,5.57,29.54,4.33,40.75-7.12,64.86,73.52,153.64,144,169.42,90.06,20.17,217.95-66.67,244.93-223.26,7.22,9.98,16.66,24.68,24.9,43.74,36.9,85.38,10.4,167.84,3.36,187.74-8.67,24.5-37.22,93.78-112.37,139.29-94.55,57.25-190.42,33.04-207.93,28.26-23.42-6.39-96.75-29.84-146.69-101.61C-7.84,320.17-11.33,185.44,43.53,141.47Z"/>
    </g>
    <circle class="cls-5" cx="265.37" cy="265.37" r="255.87"/>
  </g>
  <path class="cls-17" d="M300.41,205.45c-8.55,0-16.39-4.5-20.7-11.97-4.52-7.84-4.26-17.43.68-25.01l53.28-81.71c4.37-6.71,13.36-8.6,20.07-4.23,6.71,4.37,8.6,13.36,4.23,20.07l-47.81,73.33,104.45-5.54c7.99-.43,14.82,5.71,15.25,13.71s-5.71,14.82-13.71,15.25l-114.44,6.07c-.43.02-.86.03-1.29.03Z"/>
  <path class="cls-7" d="M129.8,360.01c-2.63,0-5.3-.7-7.71-2.17-7.02-4.27-9.25-13.42-4.99-20.44l50.22-82.62-98.53.68s-.07,0-.1,0c-8.17,0-14.82-6.59-14.88-14.78-.06-8.22,6.56-14.92,14.78-14.98l105.2-.72c9.73-.06,19.15,5.34,23.94,13.78,4.28,7.55,4.26,16.28-.05,23.37l-55.15,90.73c-2.8,4.61-7.7,7.15-12.73,7.15Z"/>
  <g>
    <path class="cls-6" d="M145.29,336.94c.59-4.48-4.27-7.65-8.1-5.27-20.25,12.56-58.62,41.78-66.36,88.88-1.95,11.88-7.29,44.32,12.66,61.46,21.18,18.19,62.38,11.9,79.85-12.11,13.07-17.97,8.97-40.52,8.07-44.86-3.52-17.19-12.58-21.77-19.98-37.9-4.86-10.61-9.22-26.67-6.15-50.19Z"/>
    <g class="cls-10">
      <path class="cls-12" d="M66.4,417.28c12.57-4.27,26.34,43.01,57.07,43.34,8.91.1,31.22-.31,48.66-13.39,0,0,0,0,0,0,2.89-1.68,5.77-3.37,8.66-5.05-.76,6.79-3.33,21.31-14.13,34.99-1.35,1.71-23.67,29.02-57.87,25.57-4.62-.47-23.39-2.36-37.01-17.5-21.26-23.63-16.26-64.26-5.38-67.96Z"/>
    </g>
    <path class="cls-1" d="M145.29,336.94c.59-4.48-4.27-7.65-8.1-5.27-20.25,12.56-58.62,41.78-66.36,88.88-1.95,11.88-7.29,44.32,12.66,61.46,21.18,18.19,62.38,11.9,79.85-12.11,13.07-17.97,8.97-40.52,8.07-44.86-3.52-17.19-12.58-21.77-19.98-37.9-4.86-10.61-9.22-26.67-6.15-50.19Z"/>
  </g>
  <g>
    <path class="cls-9" d="M418.54,190.1c-4.35-1.2-5.4-6.9-1.72-9.51,19.43-13.79,61.26-37.81,107.67-26.67,11.71,2.81,43.67,10.48,51.73,35.52,8.55,26.58-13.24,62.11-42.15,68.89-21.63,5.07-40.82-7.46-44.48-9.97-14.48-9.92-15.18-20.04-27.18-33.12-7.89-8.6-21-18.85-43.87-25.14Z"/>
    <g class="cls-16">
      <path class="cls-12" d="M523.18,148.57c-8.81,9.93,29.41,40.97,17.8,69.42-3.37,8.25-12.4,28.65-31.22,39.65,0,0,0,0,0,0-2.67,2.01-5.35,4.01-8.02,6.02,6.56,1.94,20.93,5.2,37.73.55,2.1-.58,35.93-10.55,46.02-43.41,1.36-4.44,6.9-22.47-1.76-40.9-13.52-28.77-52.92-39.93-60.55-31.33Z"/>
    </g>
    <path class="cls-1" d="M418.54,190.1c-4.35-1.2-5.4-6.9-1.72-9.51,19.43-13.79,61.26-37.81,107.67-26.67,11.71,2.81,43.67,10.48,51.73,35.52,8.55,26.58-13.24,62.11-42.15,68.89-21.63,5.07-40.82-7.46-44.48-9.97-14.48-9.92-15.18-20.04-27.18-33.12-7.89-8.6-21-18.85-43.87-25.14Z"/>
  </g>
  <path class="cls-13" d="M425.33,251.43c-3.46.77-4.5,3.73-11.04,8.39-3.2,2.28-5.68,3.52-9.42,5.38-16.87,8.41-73.33,31.44-108.34,50.47-22.12,12.03-75.81,44.28-88.82,53.16-2,1.37-9.25,6.42-19.84,8.76-3.15.7-5.72.96-7.03,1.07,0,0-8.01,7.71-2.6,16.56,12.12,19.82,44.66,64.21,97.66,73.97,54.13,9.97,95.94-18.29,107.56-26.12,10.54-7.1,43.77-30.18,59.76-75.29,16.63-46.92,4.43-88.92-3.37-108.44-1.06-2.66-8.38-9.26-14.52-7.9Z"/>
  <path class="cls-11" d="M290.74,471.02c46.84,3.03,82.19-20.86,92.73-27.95,7.95-5.35,28.8-19.81,45.43-45.94-113.54-46.56-135,53.3-138.16,73.89Z"/>
  <path class="cls-14" d="M413.81,260.38s-.13,0-.37.02c-2.81,1.91-5.17,3.1-8.57,4.79-16.87,8.41-73.33,31.44-108.34,50.47-22.12,12.03-75.81,44.28-88.82,53.16-1.76,1.2-7.57,5.25-16.14,7.8,3.76,7.4,14.86,23.78,35.77,13.45,26.52-13.11,176.06-88.39,176.06-88.39,0,0,28.37-10.51,10.41-41.3Z"/>
  <path class="cls-19" d="M425.33,251.43c-3.46.77-4.5,3.73-11.04,8.39-3.2,2.28-5.68,3.52-9.42,5.38-16.87,8.41-73.33,31.44-108.34,50.47-22.12,12.03-75.81,44.28-88.82,53.16-2,1.37-9.25,6.42-19.84,8.76-3.15.7-5.72.96-7.03,1.07h0c-1.82,2.5-3.42,5.31-3.95,6.67-1.15,2.96-.87,8.01,1.36,9.88,4.69,3.95,19.24-6.18,21.73-7.88,16.55-11.28,71.26-38.88,184.71-91.51,47.14-20.42,56.4-30.78,55.17-36.49-.95-4.43-8.87-9.15-14.52-7.9Z"/>
</svg>