<?xml version="1.0" encoding="UTF-8"?>
<svg id="Layer_1" data-name="Layer 1" xmlns="http://www.w3.org/2000/svg" viewBox="0 0 443.55 279.19">
  <defs>
    <style>
      .cls-1 {
        fill: #e1ffe8;
      }

      .cls-2 {
        fill: #264f30;
      }

      .cls-3 {
        fill: #398e53;
      }

      .cls-4 {
        fill: #307442;
      }
    </style>
  </defs>
  <path class="cls-4" d="M351.16,52.84c18.98,0,38.02-.15,57,0,6.06.05,27.93-1.08,31.55.95,1.21.68,3.15,3.08,3.43,4.57.55,2.87.54,19.08,0,21.96-.67,3.54-5.29,5.97-8.57,6.43-9.32,1.32-23.45.02-33.41.09-21.31.16-42.69,0-64,0h-30c.95-9.22.5-24.48,0-34h44Z"/>
  <path class="cls-2" d="M17.16,212.54c1.43-9.05,12.61-18,21.5-19l347.05-.04c10.03-.34,21.96,9.26,23.46,19.04,1.04,6.8-.55,14.3-4.59,19.91-5.16,7.16-30.19,31.56-37.51,36.49-17.52,11.8-32.01,9.35-51.91,9.59,7.86-4.46,13.91-8.86,16.52-17.98,7.03-24.63-22.13-43.47-41.53-26.53-15.75,13.76-9.09,36.94,9.01,44.51-25.98.16-52.02.03-78,0,34.09-13.37,13.55-63.48-19.02-48.52-21.27,9.77-18.11,40.3,3.02,48.52-25.98-.04-52.02.08-78,0,14.73-6.67,22.54-21.15,15.18-36.68-11.91-25.12-52.56-15.32-48.09,17.09,1.08,7.81,10.49,17.59,17.91,19.59-21.36.73-38.68,1.36-56.33-12.17-6.73-5.16-29.49-27.34-34.11-33.89-3.87-5.49-5.61-13.31-4.56-19.94Z"/>
  <path class="cls-4" d="M409.16,212.54c-1.49-9.79-13.43-19.38-23.46-19.04l-347.05.04c-8.88,1.01-20.07,9.95-21.5,19-19.32-10.78-22.81-25.9-8-43,8.32-9.61,12.86-9.53,25-10,116.81-4.52,236.5,3.33,353.62.07,1.13.57,3.2-1.08,3.38-1.07,3.22.09,11.05,1.26,14.22,2.28,7.21,2.31,13.22,9.7,17.01,15.99,9.56,15.9,1.37,28.03-13.23,35.73Z"/>
  <path class="cls-3" d="M127.16,125.54c14.32-.05,28.68.03,43,0,36.98-.07,74.02-.1,111,0,11.98.03,24.02-.08,36,0,12.64.09,30.56-1.53,42.41.09,7.08.96,10.55,5.73,15.59,9.91l16,23c-.18,0-2.25,1.64-3.38,1.07-117.11,3.26-236.81-4.59-353.62-.07,9.64-10.96,18.4-32.6,34.46-34.04,17.79-1.59,40.17.11,58.54.04Z"/>
  <path class="cls-1" d="M315.16,278.54c-5.48.07-10.55-.03-16,0-18.1-7.57-24.76-30.75-9.01-44.51,19.4-16.94,48.56,1.9,41.53,26.53-2.6,9.12-8.65,13.52-16.52,17.98Z"/>
  <path class="cls-1" d="M221.16,278.54c-5.44,0-10.55,0-16,0-21.13-8.21-24.28-38.75-3.02-48.52,32.56-14.96,53.11,35.15,19.02,48.52Z"/>
  <path class="cls-1" d="M127.16,278.54c-5.08-.01-9.57,1.46-15,0-7.42-2-16.84-11.78-17.91-19.59-4.47-32.41,36.19-42.22,48.09-17.09,7.36,15.53-.45,30.01-15.18,36.68Z"/>
  <path class="cls-3" d="M307.16,52.84c.5,9.52.95,24.78,0,34-1.67,16.14-13.01,16.55-26,17-35.46,1.24-75.54,1.22-111,0-12.18-.42-23.7-1.16-25.04-16.46-2.45-27.91-2.29-65.48,26.04-80.54C186.63-1.38,236.88-.41,255.7.8c30.34,1.96,49.88,21.86,51.46,52.04Z"/>
  <path class="cls-4" d="M281.16,104.77v20.78c-36.98-.06-74.02-.05-111,0v-20.78c35.46.75,75.54.76,111,0Z"/>
</svg>