<?xml version="1.0" encoding="UTF-8"?>
<svg id="Layer_1" data-name="Layer 1" xmlns="http://www.w3.org/2000/svg" viewBox="0 0 376.18 350.39">
  <defs>
    <style>
      .cls-1 {
        fill: #f5c61c;
      }

      .cls-2 {
        fill: #fdcc1a;
      }

      .cls-3 {
        fill: #453df9;
      }
    </style>
  </defs>
  <path d="M7.85,193.17c2.39,0,4.86,1.35,6.05,3.45,1.42,2.51,1.49,21.44.74,24.84-.64,2.87-3.78,5.71-6.79,5.71s-6.14-2.84-6.79-5.71c-.76-3.39-.69-22.33.74-24.84,1.19-2.1,3.66-3.45,6.05-3.45Z"/>
  <path d="M7.85,170.17c-4.55,0-6.51-2.07-7.02-6.48-1.36-11.67-1.2-50.88,1.51-61.53,2.95-11.56,18.45-28.99,31.01-28.99h132.5l-1.49-3.01L109.41,15.13c-4.81-7.19,4.2-14.81,10.95-8.96l61.97,62.06,1.89.87L252.3,1.12c6.83-3.99,14.62,3.46,10,10.01l-58.95,59.04-1.49,3.01h140.5c13.64,0,32.84,21.69,32.38,35.62-2.83,57.71,4.19,119.71.17,176.92-.86,12.23-5.87,22.86-15.57,30.43-14.09,10.99-28.79,7.63-45.48,8.02,3.09,34.77-44.64,35.16-41,0H102.85c3.81,35.1-44.16,34.78-41,0-22.27,1.41-46.6.93-57.19-22.31-4.38-9.62-5.39-35.67-3.76-46.12.52-3.31,3.48-6.56,6.94-6.56,3,0,6.14,2.84,6.79,5.71,1.89,8.45-.72,22.43.23,31.77,1.12,11.09,9.57,21.22,20.58,23.42l302.9.08c13.15-1.85,21.59-12.5,22.55-25.45,4.2-56.09-3.22-117.39-.05-174.03-1.03-10.18-8.61-19.49-18.17-22.83-102.57-1.44-205.41-.55-308.08-.45-31.78,9.9-15.89,52.24-19.8,77.2-.61,3.91-3.08,5.56-6.94,5.56Z"/>
  <path class="cls-1" d="M88.86,324.17c3.78,12.97-12.58,17.33-13.05,4.46-.27-7.48,7.81-3.57,13.05-4.46Z"/>
  <path class="cls-1" d="M286.85,324.17c5.24.89,13.32-3.02,13.05,4.46-.46,12.87-16.83,8.5-13.05-4.46Z"/>
  <path class="cls-3" d="M7.85,249.17v-22l.95-2.14c6.8-1.09,4.59-26.15,2.43-28.57-1.76-.71-2.88-1.8-3.38-3.3v-23c.56-1.42,1.93-2.6,4.12-3.55,1.59-14.72,1.67-29.84.24-45.35-1.76-12.05,8.29-35.74,22.14-35.82,102.86-.63,205.72-.45,308.58.46,7.64.07,20.04,15.74,19.79,23.77-.61,45.34-.12,90.71,1.49,136.11.04,14.36-.42,28.81-1.84,42.94-1.16,11.57-12.67,22.62-24.28,23.44l-302.9-.09c-23.5-5.66-24.12-28.19-21.87-48.27.72-7.12-1.07-10.07-5.49-14.62Z"/>
  <path d="M302.59,234.41c5.17-.93,28.44-.96,33.33.19,8.93,2.11,7.7,13.2-.63,14.51-4.71.75-29.45.81-33.73-.15-7.87-1.77-8.33-12.87,1.03-14.55Z"/>
  <path d="M300.57,203.39c4.1-.9,32.47-.9,36.57,0,7.15,1.57,6.39,12.58-.85,13.72-4.87.77-31.35.85-35.72-.15-6.2-1.42-7.01-12.03,0-13.57Z"/>
  <path d="M297.12,268.43c.96-1.02,4.67-2.11,6.22-2.28,6.33-.7,25.96-.87,31.97.08,8.33,1.32,8.91,12.64,2.03,13.92-4.32.8-32.64.81-36.95,0-4.93-.92-6.11-8.69-3.26-11.72Z"/>
  <circle cx="318.85" cy="148.59" r="29.75"/>
  <circle class="cls-2" cx="318.85" cy="148.6" r="15.7"/>
  <path d="M54.6,102.42l197.79-.28c13.11,1.03,23.37,11.37,24.5,24.5,3.94,45.98-3.05,97.5,0,144.07-.87,12.86-11.59,23.62-24.5,24.5H57.31c-13.15-1.35-22.82-11.55-24.45-24.55V126.69c1.57-12.2,9.79-21.45,21.73-24.27Z"/>
  <path class="cls-2" d="M56.58,116.4l197.3.24c3.84,1.46,6.64,3.94,8.2,7.8,1.47,49.05.89,98.64.3,147.76-2.09,5.24-6.01,9.14-11.99,9.01l-194.57-.51c-6.18-2.27-8.45-6.63-9.01-12.99,3.02-44.55-3.89-94.13,0-138.08.6-6.76,3.17-11.13,9.77-13.23Z"/>
</svg>