<?xml version="1.0" encoding="UTF-8"?>
<svg id="Layer_1" data-name="Layer 1" xmlns="http://www.w3.org/2000/svg" viewBox="0 0 510.6 323.42">
  <defs>
    <style>
      .cls-1 {
        fill: #dfeafb;
      }

      .cls-2 {
        fill: #fee991;
      }

      .cls-3 {
        fill: #3762cb;
      }

      .cls-4 {
        fill: #a3c8fe;
      }

      .cls-5 {
        fill: #6adcdc;
      }

      .cls-6 {
        fill: #446fc6;
      }
    </style>
  </defs>
  <g>
    <path class="cls-1" d="M117.71,126.81l.16-3.48c1.46-32.39,16.44-62.62,42.18-85.12C185.78,15.72,219.61,3.33,255.3,3.33s69.51,12.38,95.25,34.87c25.75,22.5,40.73,52.73,42.18,85.12l.16,3.48H117.71Z"/>
    <path class="cls-3" d="M255.3,6.67c72.26,0,131.18,51.85,134.1,116.8H121.2C124.12,58.52,183.04,6.67,255.3,6.67M255.3,0c-36.5,0-71.1,12.67-97.44,35.69-26.44,23.1-41.82,54.17-43.32,87.48l-.31,6.97h282.15l-.31-6.97c-1.5-33.31-16.88-64.38-43.32-87.48C326.4,12.67,291.79,0,255.3,0h0Z"/>
  </g>
  <g>
    <path class="cls-4" d="M255.3,319.92c-51.05,0-92.67-34.26-94.77-78.01l-.18-3.67h189.88l-.18,3.67c-2.09,43.74-43.72,78.01-94.77,78.01Z"/>
    <path class="cls-3" d="M346.57,241.75c-1.99,41.53-42.09,74.67-91.27,74.67s-89.28-33.15-91.27-74.67h182.54M353.91,234.75h-197.23l.35,7.33c1.06,22.13,11.89,42.72,30.49,57.99,18.35,15.06,42.42,23.35,67.77,23.35s49.43-8.29,67.77-23.35c18.6-15.27,29.43-35.86,30.49-57.99l.35-7.33h0Z"/>
  </g>
  <g>
    <path class="cls-6" d="M29.66,168.95l-.05-3.44c-.09-5.85,4.54-15.42,45.67-31.01,21.69-8.22,43.71-14.33,43.93-14.39l.47-.13,273.09,1.63.39.09c79.11,18.78,87.08,40.43,87.73,42.84l1.19,4.41H29.66Z"/>
    <path class="cls-3" d="M120.13,123.47l272.2,1.63c79.37,18.84,85.16,40.35,85.16,40.35H33.1c-.28-17.86,87.03-41.97,87.03-41.97M119.21,116.46l-.94.26c-.9.25-22.39,6.21-44.24,14.49-13.02,4.93-23.44,9.68-30.99,14.1-7.34,4.3-17.08,11.08-16.94,20.24l.11,6.89h460.42l-2.38-8.82c-1.15-4.26-10.9-26.49-90.3-45.34l-.78-.18h-.8s-272.2-1.63-272.2-1.63h-.97Z"/>
  </g>
  <g>
    <path class="cls-6" d="M247.31,242.33c-42.31,0-85.17-1.37-127.4-4.06l-.25-.02-.24-.05c-.22-.05-22.2-4.61-43.87-10.75-40.7-11.54-46.07-18.69-45.95-24.15l.07-3.43h452.8l-1.69,4.69c-1.08,3-10.4,18.69-87.84,32.44l-.18.03h-.18c-45.83,3.35-92.38,5.12-138.33,5.28-2.32,0-4.64.01-6.95.01Z"/>
    <path class="cls-3" d="M477.5,203.38s-5.79,16.09-85.16,30.18c-43.19,3.14-89.32,5.09-138.09,5.26-2.32,0-4.63.01-6.94.01-44.73,0-87.2-1.5-127.17-4.05,0,0-87.31-18.04-87.03-31.4h444.39M487.46,196.38H26.25l-.14,6.85c-.17,8.17,8.84,13.23,17.67,17.1,7.5,3.29,17.87,6.82,30.83,10.49,21.79,6.18,43.89,10.77,44.11,10.81l.48.1.49.03c42.3,2.7,85.24,4.06,127.62,4.06,2.31,0,4.64,0,6.96-.01,46.03-.16,92.66-1.93,138.57-5.27l.36-.03.36-.06c77.34-13.74,88.84-30.04,90.52-34.71l3.37-9.37h0Z"/>
  </g>
  <g>
    <path class="cls-5" d="M19.21,200.12c-8.66,0-15.71-7.05-15.71-15.71s7.05-15.71,15.71-15.71h472.18c8.66,0,15.71,7.05,15.71,15.71s-7.05,15.71-15.71,15.71H19.21Z"/>
    <path class="cls-3" d="M491.39,172.2c6.74,0,12.21,5.47,12.21,12.21s-5.47,12.21-12.21,12.21H19.21c-6.74,0-12.21-5.47-12.21-12.21s5.47-12.21,12.21-12.21h472.18M491.39,165.2H19.21c-10.59,0-19.21,8.62-19.21,19.21s8.62,19.21,19.21,19.21h472.18c10.59,0,19.21-8.62,19.21-19.21s-8.62-19.21-19.21-19.21h0Z"/>
  </g>
  <g>
    <path class="cls-2" d="M258.66,309.33c-12.43,0-22.54-10.11-22.54-22.54s10.11-22.54,22.54-22.54,22.54,10.11,22.54,22.54-10.11,22.54-22.54,22.54Z"/>
    <path class="cls-3" d="M258.66,267.75c10.52,0,19.04,8.52,19.04,19.04s-8.52,19.04-19.04,19.04-19.04-8.52-19.04-19.04,8.52-19.04,19.04-19.04M258.66,260.75c-14.36,0-26.04,11.68-26.04,26.04s11.68,26.04,26.04,26.04,26.04-11.68,26.04-26.04-11.68-26.04-26.04-26.04h0Z"/>
  </g>
  <g>
    <path class="cls-2" d="M331.09,292.94c-4.04,0-7.56-1.21-10.18-3.49-6.53-5.69-5.82-17.17-1.36-24.98,3.36-5.88,10.49-12.2,18.21-12.2,1.46,0,2.88.23,4.22.7,4.21,1.44,7.7,5.17,9.6,10.23,2.35,6.27,1.87,13.52-1.25,18.91-3.74,6.48-11.47,10.83-19.23,10.83Z"/>
    <path class="cls-3" d="M337.75,255.77c1.04,0,2.08.16,3.09.51,7.74,2.66,11.42,15.48,6.45,24.08-3.31,5.74-10.17,9.08-16.2,9.08-3.02,0-5.83-.84-7.88-2.63-5.38-4.69-4.07-14.57-.62-20.6,2.98-5.21,9.2-10.44,15.17-10.44M337.75,248.77h0c-9.12,0-17.41,7.24-21.25,13.97-5.09,8.91-6.08,22.22,2.1,29.35,3.27,2.85,7.58,4.35,12.48,4.35,8.97,0,17.92-5.06,22.26-12.58,3.68-6.38,4.24-14.56,1.5-21.89-2.26-6.04-6.54-10.53-11.74-12.31-1.71-.59-3.51-.89-5.36-.89h0Z"/>
  </g>
  <g>
    <path class="cls-2" d="M182.49,294.96c-7.76,0-15.49-4.35-19.23-10.83-3.12-5.4-3.6-12.65-1.25-18.91,1.89-5.06,5.39-8.79,9.59-10.23,1.34-.46,2.76-.7,4.22-.7,7.72,0,14.85,6.33,18.21,12.2,4.46,7.81,5.17,19.28-1.36,24.98-2.62,2.28-6.14,3.49-10.18,3.49h0Z"/>
    <path class="cls-3" d="M175.83,257.79c5.97,0,12.19,5.23,15.17,10.44,3.45,6.03,4.75,15.92-.62,20.6-2.06,1.79-4.87,2.63-7.88,2.63-6.03,0-12.89-3.34-16.2-9.08-4.97-8.6-1.29-21.43,6.45-24.08,1.01-.35,2.04-.51,3.09-.51M175.83,250.79c-1.85,0-3.65.3-5.36.89-5.2,1.79-9.48,6.27-11.74,12.32-2.74,7.33-2.18,15.52,1.5,21.89,4.34,7.52,13.29,12.58,22.26,12.58,4.9,0,9.22-1.5,12.48-4.35,8.18-7.13,7.19-20.45,2.1-29.35-3.84-6.73-12.13-13.97-21.25-13.97h0Z"/>
  </g>
</svg>